<svg media="(prefers-color-scheme: light)" viewBox="0 0 5280 800" fill="none" xmlns="http://www.w3.org/2000/svg">
<g clip-path="url(#clip0_20_19)">
<path d="M4934.83 118H4724.83V211.333H4934.83V118Z" fill="#1D2021" />
<path d="M4934.83 380.5H4876.5V473.833H4934.83V380.5Z" fill="#1D2021" />
<path
d="M4931.92 118C4982.2 118 5030.42 136.745 5065.97 170.111C5101.53 203.476 5121.5 248.73 5121.5 295.917C5121.5 343.103 5101.53 388.357 5065.97 421.722C5030.42 455.088 4982.2 473.833 4931.92 473.833V380.553C4955.83 380.553 4978.78 371.636 4995.69 355.764C5012.6 339.891 5022.11 318.363 5022.11 295.917C5022.11 273.469 5012.6 251.942 4995.69 236.07C4978.78 220.197 4955.83 211.28 4931.92 211.28V118Z"
fill="#1D2021" />
<mask id="mask0_20_19" style="mask-type:luminance" maskUnits="userSpaceOnUse" x="4730" y="380" width="339"
height="298">
<path d="M5069 380.5H4730.67V678H5069V380.5Z" fill="white" />
</mask>
<g mask="url(#mask0_20_19)">
<path d="M4748.17 118L5028.17 678H4923.17L4748.17 328L4573.17 678H4468.17L4748.17 118Z" fill="#1D2021" />
</g>
<mask id="mask1_20_19" style="mask-type:luminance" maskUnits="userSpaceOnUse" x="4643" y="118" width="152"
height="94">
<path d="M4794.83 118H4643.17V211.333H4794.83V118Z" fill="white" />
</mask>
<g mask="url(#mask1_20_19)">
<path d="M4616.92 -144.5L4896.92 415.5H4791.92L4616.92 65.5L4441.92 415.5H4336.92L4616.92 -144.5Z"
fill="#1D2021" />
</g>
<path d="M4409.83 118L4689.83 678H4584.83L4409.83 328L4234.83 678H4129.83L4409.83 118Z" fill="#1D2021" />
<path d="M3709.83 211.333H3616.5V678H3709.83V211.333Z" fill="#1D2021" />
<path d="M3943.17 584.667H3616.5V678H3943.17V584.667Z" fill="#1D2021" />
<path d="M3943.17 678H4036.5L3943.17 584.667V678Z" fill="#1D2021" />
<path d="M3616.5 211.333H3709.83L3616.5 118V211.333Z" fill="#1D2021" />
<path d="M2963.17 211.333H3056.5L2963.17 118V211.333Z" fill="#1D2021" />
<path d="M3523.17 118L3429.83 211.333H3523.17V118Z" fill="#1D2021" />
<path
d="M3523.17 398C3523.17 472.261 3493.67 543.48 3441.16 595.99C3388.64 648.5 3317.43 678 3243.17 678C3168.91 678 3097.69 648.5 3045.18 595.99C2992.67 543.48 2963.17 472.261 2963.17 398H3056.49C3056.49 447.51 3076.16 494.991 3111.16 530C3146.18 565.008 3193.66 584.676 3243.17 584.676C3292.67 584.676 3340.16 565.008 3375.17 530C3410.18 494.991 3429.85 447.51 3429.85 398H3523.17Z"
fill="#1D2021" />
<path d="M3523.17 211.333H3429.83V398H3523.17V211.333Z" fill="#1D2021" />
<path d="M3056.5 211.333H2963.17V398H3056.5V211.333Z" fill="#1D2021" />
<path
d="M2589.83 118C2626.6 118 2663.01 125.242 2696.99 139.314C2730.95 153.385 2761.82 174.01 2787.82 200.01C2813.82 226.011 2834.45 256.878 2848.52 290.849C2862.59 324.82 2869.83 361.23 2869.83 398C2869.83 434.77 2862.59 471.18 2848.52 505.151C2834.45 539.123 2813.82 569.989 2787.82 595.99C2761.82 621.991 2730.95 642.615 2696.99 656.686C2663.01 670.758 2626.6 678 2589.83 678V584.665C2614.34 584.665 2638.62 579.837 2661.27 570.456C2683.91 561.075 2704.49 547.325 2721.82 529.992C2739.16 512.659 2752.91 492.081 2762.29 469.434C2771.67 446.787 2776.5 422.513 2776.5 398C2776.5 373.487 2771.67 349.214 2762.29 326.567C2752.91 303.919 2739.16 283.342 2721.82 266.008C2704.49 248.675 2683.91 234.925 2661.27 225.544C2638.62 216.163 2614.34 211.335 2589.83 211.335V118Z"
fill="#1D2021" />
<path d="M2589.83 118H2403.17V211.333H2589.83V118Z" fill="#1D2021" />
<path d="M2589.83 584.667H2403.17V678H2589.83V584.667Z" fill="#1D2021" />
<path d="M2403.17 118V211.333L2309.83 118H2403.17Z" fill="#1D2021" />
<path d="M2403.17 584.667L2309.83 678H2403.17V584.667Z" fill="#1D2021" />
<path
d="M2309.83 398C2309.83 552.64 2184.47 678 2029.83 678C1875.19 678 1749.83 552.64 1749.83 398C1749.83 243.36 1875.19 118 2029.83 118C2184.47 118 2309.83 243.36 2309.83 398ZM1843.15 398C1843.15 501.098 1926.73 584.676 2029.83 584.676C2132.93 584.676 2216.51 501.098 2216.51 398C2216.51 294.902 2132.93 211.324 2029.83 211.324C1926.73 211.324 1843.15 294.902 1843.15 398Z"
fill="#1D2021" />
<path d="M1096.5 118V678H1189.83V412.737L1373.58 678L1563.17 412.737V678H1656.5V118L1373.58 512.948L1096.5 118Z"
fill="#1D2021" />
<path d="M76 215.111H189.778L76 101.333V215.111Z" fill="#1D2021" />
<path d="M758.666 101.333L644.889 215.111H758.666V101.333Z" fill="#1D2021" />
<path
d="M758.667 442.667C758.667 533.194 722.706 620.014 658.692 684.026C594.677 748.039 507.858 784 417.333 784C326.809 784 239.989 748.039 175.975 684.026C111.961 620.014 76 533.194 76 442.667H189.763C189.763 503.022 213.742 560.904 256.416 603.581C299.097 646.258 356.981 670.234 417.333 670.234C477.685 670.234 535.57 646.258 578.251 603.581C620.924 560.904 644.903 503.022 644.903 442.667H758.667Z"
fill="#1D2021" />
<path d="M758.666 215.111H644.889V442.667H758.666V215.111Z" fill="#1D2021" />
<path d="M189.778 215.111H76V442.667H189.778V215.111Z" fill="#1D2021" />
<g clip-path="url(#clip1_20_19)">
<path fill-rule="evenodd" clip-rule="evenodd"
d="M588 186.667H246.667L275.111 215.111L303.556 243.556L332 272L360.445 300.445L388.889 328.889L417.334 357.334L445.778 328.889L474.222 300.445L502.667 272L531.111 243.556L559.556 215.111L588 186.667ZM588 215.111L559.556 243.556L531.111 272L502.667 300.445L474.222 328.889L445.778 357.334L417.334 385.778L388.889 357.334L360.445 328.889L332 300.445L303.556 272L275.111 243.556L246.667 215.111V243.556L275.111 272L303.556 300.445L332 328.889L360.445 357.333L388.889 385.778L402.285 399.174C406.965 397.41 412.037 396.444 417.334 396.444C422.631 396.444 427.702 397.41 432.382 399.174L445.777 385.778L474.223 357.333L502.667 328.889L531.111 300.445L559.556 272L588 243.556V215.111ZM588 272L559.556 300.445L531.111 328.889V439.111C531.111 466.903 520.943 493.647 502.667 514.369V586.946C552.72 557.992 586.703 504.348 587.964 442.667H588V439.111V272ZM474.223 600.067V537.646C457.073 547.547 437.479 552.889 417.334 552.889C397.188 552.889 377.594 547.547 360.445 537.646V600.067C378.238 606.356 397.386 609.778 417.334 609.778C437.281 609.778 456.429 606.356 474.223 600.067ZM332 586.946V514.369C313.724 493.647 303.556 466.903 303.556 439.111V328.889L275.111 300.445L246.667 272V439.111V442.667H246.703C247.964 504.348 281.947 557.992 332 586.946ZM385.438 410.771C378.738 418.307 374.667 428.234 374.667 439.111C374.667 462.675 393.77 481.778 417.334 481.778C440.898 481.778 460.001 462.675 460.001 439.111C460.001 428.233 455.93 418.307 449.229 410.771L474.223 385.778L502.667 357.333V439.111H502.631C502.631 461.734 493.644 483.429 477.648 499.426C461.652 515.422 439.956 524.409 417.334 524.409C394.711 524.409 373.016 515.422 357.019 499.426C341.023 483.429 332.036 461.734 332.036 439.111H332V357.333L360.445 385.778L385.438 410.771Z"
fill="#1D2021" />
</g>
<path d="M758.667 16L588 186.667V16H758.667Z" fill="#1D2021" />
<path d="M758.667 16L588 186.667V16H758.667Z" fill="#1D2021" />
<path d="M588 186.667L417.333 357.334V186.667H588Z" fill="#1D2021" />
<path d="M76 16L246.667 186.667V16H76Z" fill="#1D2021" />
<path d="M246.667 186.667L417.334 357.334V186.667H246.667Z" fill="#1D2021" />
<path d="M417.333 186.667L588 16.0003V186.667H417.333Z" fill="#1D2021" />
<path d="M417.333 186.667L246.666 16.0003V186.667H417.333Z" fill="#1D2021" />
</g>
<defs>
<clipPath id="clip0_20_19">
<rect width="5128" height="768" fill="white" transform="translate(76 16)" />
</clipPath>
<clipPath id="clip1_20_19">
<path
d="M246.667 186.667H588V439.112C588 533.368 511.59 609.778 417.334 609.778V609.778C323.077 609.778 246.667 533.368 246.667 439.111V186.667Z"
fill="white" />
</clipPath>
</defs>
</svg>
