
<svg viewBox="0 0 868 724" fill="none" xmlns="http://www.w3.org/2000/svg">
<rect x="4" y="4" width="860" height="716" fill="#1D2021" stroke="#665C54" stroke-width="8" />
<rect x="28" y="98" width="181" height="85" fill="#FB4934" stroke="#CC241D" stroke-width="8" />
<rect x="241" y="98" width="185" height="85" fill="#FB4934" stroke="#CC241D" stroke-width="8" />
<rect x="458" y="98" width="185" height="85" fill="#FB4934" stroke="#CC241D" stroke-width="8" />
<rect x="28" y="223" width="615" height="68" fill="#B8BB26" stroke="#98971A" stroke-width="8" />
<rect x="28" y="331" width="615" height="184" fill="#FABD2F" stroke="#D79921" stroke-width="8" />
<rect x="675" y="331" width="66" height="184" fill="#FABD2F" stroke="#D79921" stroke-width="8" />
<rect x="773" y="331" width="66" height="184" fill="#FABD2F" stroke="#D79921" stroke-width="8" />
<rect x="28" y="555" width="811" height="142" fill="#D3869B" stroke="#B16286" stroke-width="8" />
<path
d="M56.2667 148.533L50.1 133H53.2667L55.8 139.4C55.9222 139.7 56.0389 140.017 56.15 140.35C56.2722 140.672 56.4056 141.067 56.55 141.533C56.6944 141.067 56.8333 140.672 56.9667 140.35C57.1111 140.017 57.2444 139.7 57.3667 139.4L60.2333 132.5L63.1333 139.4C63.2556 139.7 63.3889 140.017 63.5333 140.35C63.6778 140.672 63.8222 141.067 63.9667 141.533C64.1111 141.067 64.2444 140.672 64.3667 140.35C64.4889 140.017 64.6056 139.7 64.7167 139.4L67.2167 133H70.2333L64.0667 148.533L60.9667 141.133C60.8444 140.833 60.7167 140.517 60.5833 140.183C60.45 139.85 60.3111 139.45 60.1667 138.983C60.0222 139.45 59.8833 139.85 59.75 140.183C59.6167 140.506 59.4889 140.817 59.3667 141.117L56.2667 148.533ZM75.1271 148.333C74.0049 148.333 73.016 148.1 72.1604 147.633C71.3049 147.167 70.6382 146.528 70.1604 145.717C69.6826 144.894 69.4438 143.956 69.4438 142.9C69.4438 141.889 69.6771 140.994 70.1438 140.217C70.6104 139.428 71.2382 138.806 72.0271 138.35C72.8271 137.894 73.7104 137.667 74.6771 137.667C75.666 137.667 76.5493 137.894 77.3271 138.35C78.1049 138.794 78.716 139.406 79.1604 140.183C79.616 140.961 79.8438 141.844 79.8438 142.833V143.85H73.7437C73.466 143.85 73.1993 143.833 72.9438 143.8C72.6882 143.767 72.4326 143.728 72.1771 143.683C72.3104 144.35 72.6382 144.894 73.1604 145.317C73.6938 145.728 74.3715 145.933 75.1938 145.933C75.8271 145.933 76.3938 145.806 76.8938 145.55C77.4049 145.294 77.8215 144.978 78.1438 144.6L78.7771 147.2C78.2771 147.578 77.7104 147.861 77.0771 148.05C76.4549 148.239 75.8049 148.333 75.1271 148.333ZM72.1104 141.933C72.666 141.811 73.2104 141.75 73.7437 141.75H75.5104C75.8215 141.75 76.116 141.761 76.3937 141.783C76.6715 141.806 76.9326 141.844 77.1771 141.9C77.0104 141.3 76.7049 140.828 76.2604 140.483C75.8271 140.139 75.2882 139.967 74.6438 139.967C74.0326 139.967 73.4993 140.144 73.0437 140.5C72.5993 140.844 72.2882 141.322 72.1104 141.933ZM87.0682 148.267C86.4349 148.267 85.8516 148.156 85.3182 147.933C84.796 147.711 84.3405 147.406 83.9516 147.017V148H81.4516V132H84.3516V138.633C84.7182 138.344 85.1293 138.122 85.5849 137.967C86.0405 137.811 86.5349 137.733 87.0682 137.733C88.0016 137.733 88.846 137.972 89.6016 138.45C90.3571 138.917 90.9571 139.55 91.4016 140.35C91.8571 141.15 92.0849 142.033 92.0849 143C92.0849 143.967 91.8571 144.85 91.4016 145.65C90.9571 146.439 90.3571 147.072 89.6016 147.55C88.846 148.028 88.0016 148.267 87.0682 148.267ZM86.7349 145.717C87.2238 145.717 87.6682 145.594 88.0682 145.35C88.4682 145.106 88.7849 144.778 89.0182 144.367C89.2627 143.956 89.3849 143.5 89.3849 143C89.3849 142.5 89.2627 142.044 89.0182 141.633C88.7849 141.222 88.4682 140.894 88.0682 140.65C87.6682 140.406 87.2238 140.283 86.7349 140.283C86.246 140.283 85.8016 140.406 85.4016 140.65C85.0016 140.894 84.6793 141.222 84.4349 141.633C84.2016 142.044 84.0849 142.5 84.0849 143C84.0849 143.5 84.2016 143.956 84.4349 144.367C84.6793 144.778 85.0016 145.106 85.4016 145.35C85.8016 145.594 86.246 145.717 86.7349 145.717ZM99.2719 148V133H107.272V135.5H102.172V137.9H106.772V140.4H102.172V148H99.2719ZM108.452 148V138H111.052V139.717C111.396 139.139 111.829 138.694 112.352 138.383C112.885 138.061 113.507 137.9 114.218 137.9L114.852 140.467C114.64 140.4 114.402 140.367 114.135 140.367C113.302 140.367 112.629 140.639 112.118 141.183C111.607 141.717 111.352 142.483 111.352 143.483V148H108.452ZM120.688 148.333C119.699 148.333 118.793 148.094 117.971 147.617C117.149 147.139 116.493 146.494 116.004 145.683C115.526 144.872 115.288 143.978 115.288 143C115.288 142.011 115.526 141.117 116.004 140.317C116.493 139.506 117.149 138.861 117.971 138.383C118.793 137.906 119.699 137.667 120.688 137.667C121.688 137.667 122.593 137.906 123.404 138.383C124.226 138.861 124.876 139.506 125.354 140.317C125.843 141.117 126.088 142.011 126.088 143C126.088 143.978 125.843 144.872 125.354 145.683C124.876 146.494 124.226 147.139 123.404 147.617C122.593 148.094 121.688 148.333 120.688 148.333ZM120.688 145.733C121.188 145.733 121.638 145.611 122.038 145.367C122.449 145.122 122.771 144.794 123.004 144.383C123.249 143.961 123.371 143.5 123.371 143C123.371 142.489 123.249 142.028 123.004 141.617C122.771 141.206 122.449 140.878 122.038 140.633C121.638 140.389 121.188 140.267 120.688 140.267C120.188 140.267 119.732 140.389 119.321 140.633C118.921 140.878 118.599 141.206 118.354 141.617C118.121 142.028 118.004 142.489 118.004 143C118.004 143.5 118.121 143.961 118.354 144.383C118.599 144.794 118.921 145.122 119.321 145.367C119.732 145.611 120.188 145.733 120.688 145.733ZM127.788 148V138H130.388V139.1C130.743 138.633 131.182 138.278 131.704 138.033C132.226 137.789 132.788 137.667 133.388 137.667C134.099 137.667 134.76 137.839 135.371 138.183C135.993 138.517 136.493 139.011 136.871 139.667C137.26 140.311 137.454 141.094 137.454 142.017V148H134.554V142.4C134.554 141.844 134.388 141.35 134.054 140.917C133.721 140.483 133.243 140.267 132.621 140.267C132.121 140.267 131.671 140.439 131.271 140.783C130.882 141.117 130.688 141.644 130.688 142.367V148H127.788ZM140.298 148V140.3H138.431V138H140.348V134.667H143.148V138H145.131V140.3H143.198V148H140.298ZM145.539 144.2V141.8H150.872V144.2H145.539ZM157.979 148.333C156.856 148.333 155.868 148.1 155.012 147.633C154.156 147.167 153.49 146.528 153.012 145.717C152.534 144.894 152.295 143.956 152.295 142.9C152.295 141.889 152.529 140.994 152.995 140.217C153.462 139.428 154.09 138.806 154.879 138.35C155.679 137.894 156.562 137.667 157.529 137.667C158.518 137.667 159.401 137.894 160.179 138.35C160.956 138.794 161.568 139.406 162.012 140.183C162.468 140.961 162.695 141.844 162.695 142.833V143.85H156.595C156.318 143.85 156.051 143.833 155.795 143.8C155.54 143.767 155.284 143.728 155.029 143.683C155.162 144.35 155.49 144.894 156.012 145.317C156.545 145.728 157.223 145.933 158.045 145.933C158.679 145.933 159.245 145.806 159.745 145.55C160.256 145.294 160.673 144.978 160.995 144.6L161.629 147.2C161.129 147.578 160.562 147.861 159.929 148.05C159.306 148.239 158.656 148.333 157.979 148.333ZM154.962 141.933C155.518 141.811 156.062 141.75 156.595 141.75H158.362C158.673 141.75 158.968 141.761 159.245 141.783C159.523 141.806 159.784 141.844 160.029 141.9C159.862 141.3 159.556 140.828 159.112 140.483C158.679 140.139 158.14 139.967 157.495 139.967C156.884 139.967 156.351 140.144 155.895 140.5C155.451 140.844 155.14 141.322 154.962 141.933ZM164.303 148V138H166.903V139.1C167.259 138.633 167.698 138.278 168.22 138.033C168.742 137.789 169.303 137.667 169.903 137.667C170.614 137.667 171.275 137.839 171.886 138.183C172.509 138.517 173.009 139.011 173.386 139.667C173.775 140.311 173.97 141.094 173.97 142.017V148H171.07V142.4C171.07 141.844 170.903 141.35 170.57 140.917C170.236 140.483 169.759 140.267 169.136 140.267C168.636 140.267 168.186 140.439 167.786 140.783C167.398 141.117 167.203 141.644 167.203 142.367V148H164.303ZM180.492 148.267C179.558 148.267 178.714 148.028 177.958 147.55C177.203 147.072 176.597 146.439 176.142 145.65C175.697 144.85 175.475 143.967 175.475 143C175.475 142.033 175.697 141.15 176.142 140.35C176.597 139.55 177.203 138.917 177.958 138.45C178.714 137.972 179.558 137.733 180.492 137.733C181.025 137.733 181.519 137.811 181.975 137.967C182.431 138.122 182.842 138.344 183.208 138.633V132H186.108V148H183.608V147.017C183.231 147.406 182.775 147.711 182.242 147.933C181.708 148.156 181.125 148.267 180.492 148.267ZM180.825 145.717C181.314 145.717 181.758 145.594 182.158 145.35C182.558 145.106 182.875 144.778 183.108 144.367C183.353 143.956 183.475 143.5 183.475 143C183.475 142.5 183.353 142.044 183.108 141.633C182.875 141.222 182.558 140.894 182.158 140.65C181.758 140.406 181.314 140.283 180.825 140.283C180.336 140.283 179.892 140.406 179.492 140.65C179.092 140.894 178.769 141.222 178.525 141.633C178.292 142.044 178.175 142.5 178.175 143C178.175 143.5 178.292 143.956 178.525 144.367C178.769 144.778 179.092 145.106 179.492 145.35C179.892 145.594 180.336 145.717 180.825 145.717Z"
fill="#1D2021" />
<path
d="M248.6 148V133H253.7C254.9 133 255.989 133.194 256.967 133.583C257.956 133.972 258.806 134.511 259.517 135.2C260.239 135.878 260.794 136.672 261.183 137.583C261.572 138.494 261.767 139.467 261.767 140.5C261.767 141.533 261.572 142.506 261.183 143.417C260.794 144.328 260.239 145.128 259.517 145.817C258.806 146.494 257.956 147.028 256.967 147.417C255.989 147.806 254.9 148 253.7 148H248.6ZM251.5 145.3H253.433C254.278 145.3 255.022 145.178 255.667 144.933C256.311 144.678 256.85 144.333 257.283 143.9C257.728 143.456 258.061 142.944 258.283 142.367C258.517 141.789 258.633 141.167 258.633 140.5C258.633 139.833 258.517 139.211 258.283 138.633C258.061 138.044 257.728 137.533 257.283 137.1C256.85 136.656 256.311 136.311 255.667 136.067C255.022 135.822 254.278 135.7 253.433 135.7H251.5V145.3ZM268.94 148.333C267.817 148.333 266.828 148.1 265.973 147.633C265.117 147.167 264.451 146.528 263.973 145.717C263.495 144.894 263.256 143.956 263.256 142.9C263.256 141.889 263.49 140.994 263.956 140.217C264.423 139.428 265.051 138.806 265.84 138.35C266.64 137.894 267.523 137.667 268.49 137.667C269.478 137.667 270.362 137.894 271.14 138.35C271.917 138.794 272.528 139.406 272.973 140.183C273.428 140.961 273.656 141.844 273.656 142.833V143.85H267.556C267.278 143.85 267.012 143.833 266.756 143.8C266.501 143.767 266.245 143.728 265.99 143.683C266.123 144.35 266.451 144.894 266.973 145.317C267.506 145.728 268.184 145.933 269.006 145.933C269.64 145.933 270.206 145.806 270.706 145.55C271.217 145.294 271.634 144.978 271.956 144.6L272.59 147.2C272.09 147.578 271.523 147.861 270.89 148.05C270.267 148.239 269.617 148.333 268.94 148.333ZM265.923 141.933C266.478 141.811 267.023 141.75 267.556 141.75H269.323C269.634 141.75 269.928 141.761 270.206 141.783C270.484 141.806 270.745 141.844 270.99 141.9C270.823 141.3 270.517 140.828 270.073 140.483C269.64 140.139 269.101 139.967 268.456 139.967C267.845 139.967 267.312 140.144 266.856 140.5C266.412 140.844 266.101 141.322 265.923 141.933ZM278.547 148.333C277.87 148.333 277.181 148.222 276.481 148C275.792 147.778 275.253 147.478 274.864 147.1L275.581 144.367C275.903 144.811 276.347 145.2 276.914 145.533C277.492 145.867 278.086 146.033 278.697 146.033C279.109 146.033 279.403 145.956 279.581 145.8C279.77 145.644 279.864 145.456 279.864 145.233C279.864 144.978 279.77 144.794 279.581 144.683C279.392 144.561 279.197 144.461 278.997 144.383L277.597 143.85C277.286 143.728 276.931 143.561 276.531 143.35C276.131 143.139 275.781 142.839 275.481 142.45C275.192 142.061 275.047 141.55 275.047 140.917C275.047 140.339 275.192 139.806 275.481 139.317C275.77 138.828 276.186 138.433 276.731 138.133C277.286 137.822 277.953 137.667 278.731 137.667C279.453 137.667 280.125 137.789 280.747 138.033C281.381 138.278 281.842 138.55 282.131 138.85L281.464 141.483C281.086 140.994 280.636 140.622 280.114 140.367C279.603 140.1 279.114 139.967 278.647 139.967C278.292 139.967 278.031 140.039 277.864 140.183C277.697 140.328 277.614 140.494 277.614 140.683C277.614 140.828 277.67 140.972 277.781 141.117C277.903 141.25 278.103 141.372 278.381 141.483L279.681 141.967C280.059 142.1 280.459 142.278 280.881 142.5C281.314 142.722 281.681 143.033 281.981 143.433C282.281 143.822 282.431 144.361 282.431 145.05C282.431 146.017 282.07 146.806 281.347 147.417C280.636 148.028 279.703 148.333 278.547 148.333ZM290.75 148L286.767 142.5L290.05 138H293.167L289.933 142.25L294.167 148H290.75ZM284.1 148V132H287V148H284.1ZM295.767 148V140.3H293.9V138H295.817V134.667H298.617V138H300.6V140.3H298.667V148H295.767ZM306.508 148.333C305.519 148.333 304.613 148.094 303.791 147.617C302.969 147.139 302.313 146.494 301.824 145.683C301.347 144.872 301.108 143.978 301.108 143C301.108 142.011 301.347 141.117 301.824 140.317C302.313 139.506 302.969 138.861 303.791 138.383C304.613 137.906 305.519 137.667 306.508 137.667C307.508 137.667 308.413 137.906 309.224 138.383C310.047 138.861 310.697 139.506 311.174 140.317C311.663 141.117 311.908 142.011 311.908 143C311.908 143.978 311.663 144.872 311.174 145.683C310.697 146.494 310.047 147.139 309.224 147.617C308.413 148.094 307.508 148.333 306.508 148.333ZM306.508 145.733C307.008 145.733 307.458 145.611 307.858 145.367C308.269 145.122 308.591 144.794 308.824 144.383C309.069 143.961 309.191 143.5 309.191 143C309.191 142.489 309.069 142.028 308.824 141.617C308.591 141.206 308.269 140.878 307.858 140.633C307.458 140.389 307.008 140.267 306.508 140.267C306.008 140.267 305.552 140.389 305.141 140.633C304.741 140.878 304.419 141.206 304.174 141.617C303.941 142.028 303.824 142.489 303.824 143C303.824 143.5 303.941 143.961 304.174 144.383C304.419 144.794 304.741 145.122 305.141 145.367C305.552 145.611 306.008 145.733 306.508 145.733ZM313.608 153V138H316.108V138.983C316.497 138.594 316.952 138.289 317.474 138.067C318.008 137.844 318.591 137.733 319.224 137.733C320.158 137.733 321.002 137.972 321.758 138.45C322.513 138.917 323.113 139.55 323.558 140.35C324.013 141.15 324.241 142.033 324.241 143C324.241 143.967 324.013 144.85 323.558 145.65C323.113 146.439 322.513 147.072 321.758 147.55C321.002 148.028 320.158 148.267 319.224 148.267C318.691 148.267 318.197 148.183 317.741 148.017C317.286 147.861 316.874 147.644 316.508 147.367V153H313.608ZM318.891 145.717C319.38 145.717 319.824 145.594 320.224 145.35C320.624 145.106 320.941 144.778 321.174 144.367C321.419 143.956 321.541 143.5 321.541 143C321.541 142.5 321.419 142.044 321.174 141.633C320.941 141.222 320.624 140.894 320.224 140.65C319.824 140.406 319.38 140.283 318.891 140.283C318.402 140.283 317.958 140.406 317.558 140.65C317.158 140.894 316.836 141.222 316.591 141.633C316.358 142.044 316.241 142.5 316.241 143C316.241 143.5 316.358 143.956 316.591 144.367C316.836 144.778 317.158 145.106 317.558 145.35C317.958 145.594 318.402 145.717 318.891 145.717ZM331.428 148V133H339.428V135.5H334.328V137.9H338.928V140.4H334.328V148H331.428ZM340.608 148V138H343.208V139.717C343.552 139.139 343.986 138.694 344.508 138.383C345.041 138.061 345.663 137.9 346.374 137.9L347.008 140.467C346.797 140.4 346.558 140.367 346.291 140.367C345.458 140.367 344.786 140.639 344.274 141.183C343.763 141.717 343.508 142.483 343.508 143.483V148H340.608ZM352.844 148.333C351.855 148.333 350.949 148.094 350.127 147.617C349.305 147.139 348.649 146.494 348.16 145.683C347.683 144.872 347.444 143.978 347.444 143C347.444 142.011 347.683 141.117 348.16 140.317C348.649 139.506 349.305 138.861 350.127 138.383C350.949 137.906 351.855 137.667 352.844 137.667C353.844 137.667 354.749 137.906 355.56 138.383C356.383 138.861 357.033 139.506 357.51 140.317C357.999 141.117 358.244 142.011 358.244 143C358.244 143.978 357.999 144.872 357.51 145.683C357.033 146.494 356.383 147.139 355.56 147.617C354.749 148.094 353.844 148.333 352.844 148.333ZM352.844 145.733C353.344 145.733 353.794 145.611 354.194 145.367C354.605 145.122 354.927 144.794 355.16 144.383C355.405 143.961 355.527 143.5 355.527 143C355.527 142.489 355.405 142.028 355.16 141.617C354.927 141.206 354.605 140.878 354.194 140.633C353.794 140.389 353.344 140.267 352.844 140.267C352.344 140.267 351.888 140.389 351.477 140.633C351.077 140.878 350.755 141.206 350.51 141.617C350.277 142.028 350.16 142.489 350.16 143C350.16 143.5 350.277 143.961 350.51 144.383C350.755 144.794 351.077 145.122 351.477 145.367C351.888 145.611 352.344 145.733 352.844 145.733ZM359.944 148V138H362.544V139.1C362.899 138.633 363.338 138.278 363.86 138.033C364.383 137.789 364.944 137.667 365.544 137.667C366.255 137.667 366.916 137.839 367.527 138.183C368.149 138.517 368.649 139.011 369.027 139.667C369.416 140.311 369.61 141.094 369.61 142.017V148H366.71V142.4C366.71 141.844 366.544 141.35 366.21 140.917C365.877 140.483 365.399 140.267 364.777 140.267C364.277 140.267 363.827 140.439 363.427 140.783C363.038 141.117 362.844 141.644 362.844 142.367V148H359.944ZM372.454 148V140.3H370.588V138H372.504V134.667H375.304V138H377.288V140.3H375.354V148H372.454ZM377.695 144.2V141.8H383.029V144.2H377.695ZM390.135 148.333C389.013 148.333 388.024 148.1 387.168 147.633C386.313 147.167 385.646 146.528 385.168 145.717C384.69 144.894 384.452 143.956 384.452 142.9C384.452 141.889 384.685 140.994 385.152 140.217C385.618 139.428 386.246 138.806 387.035 138.35C387.835 137.894 388.718 137.667 389.685 137.667C390.674 137.667 391.557 137.894 392.335 138.35C393.113 138.794 393.724 139.406 394.168 140.183C394.624 140.961 394.852 141.844 394.852 142.833V143.85H388.752C388.474 143.85 388.207 143.833 387.952 143.8C387.696 143.767 387.44 143.728 387.185 143.683C387.318 144.35 387.646 144.894 388.168 145.317C388.702 145.728 389.379 145.933 390.202 145.933C390.835 145.933 391.402 145.806 391.902 145.55C392.413 145.294 392.829 144.978 393.152 144.6L393.785 147.2C393.285 147.578 392.718 147.861 392.085 148.05C391.463 148.239 390.813 148.333 390.135 148.333ZM387.118 141.933C387.674 141.811 388.218 141.75 388.752 141.75H390.518C390.829 141.75 391.124 141.761 391.402 141.783C391.679 141.806 391.94 141.844 392.185 141.9C392.018 141.3 391.713 140.828 391.268 140.483C390.835 140.139 390.296 139.967 389.652 139.967C389.04 139.967 388.507 140.144 388.052 140.5C387.607 140.844 387.296 141.322 387.118 141.933ZM396.459 148V138H399.059V139.1C399.415 138.633 399.854 138.278 400.376 138.033C400.898 137.789 401.459 137.667 402.059 137.667C402.77 137.667 403.432 137.839 404.043 138.183C404.665 138.517 405.165 139.011 405.543 139.667C405.932 140.311 406.126 141.094 406.126 142.017V148H403.226V142.4C403.226 141.844 403.059 141.35 402.726 140.917C402.393 140.483 401.915 140.267 401.293 140.267C400.793 140.267 400.343 140.439 399.943 140.783C399.554 141.117 399.359 141.644 399.359 142.367V148H396.459ZM412.648 148.267C411.715 148.267 410.87 148.028 410.115 147.55C409.359 147.072 408.753 146.439 408.298 145.65C407.853 144.85 407.631 143.967 407.631 143C407.631 142.033 407.853 141.15 408.298 140.35C408.753 139.55 409.359 138.917 410.115 138.45C410.87 137.972 411.715 137.733 412.648 137.733C413.181 137.733 413.676 137.811 414.131 137.967C414.587 138.122 414.998 138.344 415.365 138.633V132H418.265V148H415.765V147.017C415.387 147.406 414.931 147.711 414.398 147.933C413.865 148.156 413.281 148.267 412.648 148.267ZM412.981 145.717C413.47 145.717 413.915 145.594 414.315 145.35C414.715 145.106 415.031 144.778 415.265 144.367C415.509 143.956 415.631 143.5 415.631 143C415.631 142.5 415.509 142.044 415.265 141.633C415.031 141.222 414.715 140.894 414.315 140.65C413.915 140.406 413.47 140.283 412.981 140.283C412.492 140.283 412.048 140.406 411.648 140.65C411.248 140.894 410.926 141.222 410.681 141.633C410.448 142.044 410.331 142.5 410.331 143C410.331 143.5 410.448 143.956 410.681 144.367C410.926 144.778 411.248 145.106 411.648 145.35C412.048 145.594 412.492 145.717 412.981 145.717Z"
fill="#1D2021" />
<path
d="M472.6 148V132.5L479.733 141.367L486.733 132.5V148H483.833V143.7C483.833 143.211 483.839 142.661 483.85 142.05C483.872 141.439 483.928 140.739 484.017 139.95C483.672 140.528 483.339 141.028 483.017 141.45C482.706 141.872 482.417 142.261 482.15 142.617L479.683 145.917L477.133 142.617C476.878 142.283 476.572 141.883 476.217 141.417C475.872 140.939 475.539 140.433 475.217 139.9C475.306 140.711 475.356 141.422 475.367 142.033C475.389 142.644 475.4 143.2 475.4 143.7V148H472.6ZM494.344 148.333C493.355 148.333 492.449 148.094 491.627 147.617C490.805 147.139 490.149 146.494 489.66 145.683C489.183 144.872 488.944 143.978 488.944 143C488.944 142.011 489.183 141.117 489.66 140.317C490.149 139.506 490.805 138.861 491.627 138.383C492.449 137.906 493.355 137.667 494.344 137.667C495.344 137.667 496.249 137.906 497.06 138.383C497.883 138.861 498.533 139.506 499.01 140.317C499.499 141.117 499.744 142.011 499.744 143C499.744 143.978 499.499 144.872 499.01 145.683C498.533 146.494 497.883 147.139 497.06 147.617C496.249 148.094 495.344 148.333 494.344 148.333ZM494.344 145.733C494.844 145.733 495.294 145.611 495.694 145.367C496.105 145.122 496.427 144.794 496.66 144.383C496.905 143.961 497.027 143.5 497.027 143C497.027 142.489 496.905 142.028 496.66 141.617C496.427 141.206 496.105 140.878 495.694 140.633C495.294 140.389 494.844 140.267 494.344 140.267C493.844 140.267 493.388 140.389 492.977 140.633C492.577 140.878 492.255 141.206 492.01 141.617C491.777 142.028 491.66 142.489 491.66 143C491.66 143.5 491.777 143.961 492.01 144.383C492.255 144.794 492.577 145.122 492.977 145.367C493.388 145.611 493.844 145.733 494.344 145.733ZM507.06 148.267C506.427 148.267 505.844 148.156 505.31 147.933C504.788 147.711 504.333 147.406 503.944 147.017V148H501.444V132H504.344V138.633C504.71 138.344 505.122 138.122 505.577 137.967C506.033 137.811 506.527 137.733 507.06 137.733C507.994 137.733 508.838 137.972 509.594 138.45C510.349 138.917 510.949 139.55 511.394 140.35C511.849 141.15 512.077 142.033 512.077 143C512.077 143.967 511.849 144.85 511.394 145.65C510.949 146.439 510.349 147.072 509.594 147.55C508.838 148.028 507.994 148.267 507.06 148.267ZM506.727 145.717C507.216 145.717 507.66 145.594 508.06 145.35C508.46 145.106 508.777 144.778 509.01 144.367C509.255 143.956 509.377 143.5 509.377 143C509.377 142.5 509.255 142.044 509.01 141.633C508.777 141.222 508.46 140.894 508.06 140.65C507.66 140.406 507.216 140.283 506.727 140.283C506.238 140.283 505.794 140.406 505.394 140.65C504.994 140.894 504.672 141.222 504.427 141.633C504.194 142.044 504.077 142.5 504.077 143C504.077 143.5 504.194 143.956 504.427 144.367C504.672 144.778 504.994 145.106 505.394 145.35C505.794 145.594 506.238 145.717 506.727 145.717ZM513.805 148V138H516.705V148H513.805ZM515.255 136.55C514.822 136.55 514.455 136.4 514.155 136.1C513.855 135.8 513.705 135.433 513.705 135C513.705 134.556 513.855 134.189 514.155 133.9C514.455 133.6 514.822 133.45 515.255 133.45C515.7 133.45 516.066 133.6 516.355 133.9C516.655 134.189 516.805 134.556 516.805 135C516.805 135.433 516.655 135.8 516.355 136.1C516.066 136.4 515.7 136.55 515.255 136.55ZM518.961 148V132H521.861V148H518.961ZM529.268 148.333C528.145 148.333 527.157 148.1 526.301 147.633C525.445 147.167 524.779 146.528 524.301 145.717C523.823 144.894 523.584 143.956 523.584 142.9C523.584 141.889 523.818 140.994 524.284 140.217C524.751 139.428 525.379 138.806 526.168 138.35C526.968 137.894 527.851 137.667 528.818 137.667C529.807 137.667 530.69 137.894 531.468 138.35C532.245 138.794 532.857 139.406 533.301 140.183C533.757 140.961 533.984 141.844 533.984 142.833V143.85H527.884C527.607 143.85 527.34 143.833 527.084 143.8C526.829 143.767 526.573 143.728 526.318 143.683C526.451 144.35 526.779 144.894 527.301 145.317C527.834 145.728 528.512 145.933 529.334 145.933C529.968 145.933 530.534 145.806 531.034 145.55C531.545 145.294 531.962 144.978 532.284 144.6L532.918 147.2C532.418 147.578 531.851 147.861 531.218 148.05C530.595 148.239 529.945 148.333 529.268 148.333ZM526.251 141.933C526.807 141.811 527.351 141.75 527.884 141.75H529.651C529.962 141.75 530.257 141.761 530.534 141.783C530.812 141.806 531.073 141.844 531.318 141.9C531.151 141.3 530.845 140.828 530.401 140.483C529.968 140.139 529.429 139.967 528.784 139.967C528.173 139.967 527.64 140.144 527.184 140.5C526.74 140.844 526.429 141.322 526.251 141.933ZM541.084 148V133H549.084V135.5H543.984V137.9H548.584V140.4H543.984V148H541.084ZM550.264 148V138H552.864V139.717C553.209 139.139 553.642 138.694 554.164 138.383C554.697 138.061 555.32 137.9 556.031 137.9L556.664 140.467C556.453 140.4 556.214 140.367 555.947 140.367C555.114 140.367 554.442 140.639 553.931 141.183C553.42 141.717 553.164 142.483 553.164 143.483V148H550.264ZM562.5 148.333C561.511 148.333 560.606 148.094 559.783 147.617C558.961 147.139 558.306 146.494 557.817 145.683C557.339 144.872 557.1 143.978 557.1 143C557.1 142.011 557.339 141.117 557.817 140.317C558.306 139.506 558.961 138.861 559.783 138.383C560.606 137.906 561.511 137.667 562.5 137.667C563.5 137.667 564.406 137.906 565.217 138.383C566.039 138.861 566.689 139.506 567.167 140.317C567.656 141.117 567.9 142.011 567.9 143C567.9 143.978 567.656 144.872 567.167 145.683C566.689 146.494 566.039 147.139 565.217 147.617C564.406 148.094 563.5 148.333 562.5 148.333ZM562.5 145.733C563 145.733 563.45 145.611 563.85 145.367C564.261 145.122 564.583 144.794 564.817 144.383C565.061 143.961 565.183 143.5 565.183 143C565.183 142.489 565.061 142.028 564.817 141.617C564.583 141.206 564.261 140.878 563.85 140.633C563.45 140.389 563 140.267 562.5 140.267C562 140.267 561.544 140.389 561.133 140.633C560.733 140.878 560.411 141.206 560.167 141.617C559.933 142.028 559.817 142.489 559.817 143C559.817 143.5 559.933 143.961 560.167 144.383C560.411 144.794 560.733 145.122 561.133 145.367C561.544 145.611 562 145.733 562.5 145.733ZM569.6 148V138H572.2V139.1C572.556 138.633 572.994 138.278 573.517 138.033C574.039 137.789 574.6 137.667 575.2 137.667C575.911 137.667 576.572 137.839 577.183 138.183C577.806 138.517 578.306 139.011 578.683 139.667C579.072 140.311 579.267 141.094 579.267 142.017V148H576.367V142.4C576.367 141.844 576.2 141.35 575.867 140.917C575.533 140.483 575.056 140.267 574.433 140.267C573.933 140.267 573.483 140.439 573.083 140.783C572.694 141.117 572.5 141.644 572.5 142.367V148H569.6ZM582.11 148V140.3H580.244V138H582.16V134.667H584.96V138H586.944V140.3H585.01V148H582.11ZM587.352 144.2V141.8H592.685V144.2H587.352ZM599.791 148.333C598.669 148.333 597.68 148.1 596.824 147.633C595.969 147.167 595.302 146.528 594.824 145.717C594.347 144.894 594.108 143.956 594.108 142.9C594.108 141.889 594.341 140.994 594.808 140.217C595.274 139.428 595.902 138.806 596.691 138.35C597.491 137.894 598.374 137.667 599.341 137.667C600.33 137.667 601.213 137.894 601.991 138.35C602.769 138.794 603.38 139.406 603.824 140.183C604.28 140.961 604.508 141.844 604.508 142.833V143.85H598.408C598.13 143.85 597.863 143.833 597.608 143.8C597.352 143.767 597.097 143.728 596.841 143.683C596.974 144.35 597.302 144.894 597.824 145.317C598.358 145.728 599.036 145.933 599.858 145.933C600.491 145.933 601.058 145.806 601.558 145.55C602.069 145.294 602.486 144.978 602.808 144.6L603.441 147.2C602.941 147.578 602.374 147.861 601.741 148.05C601.119 148.239 600.469 148.333 599.791 148.333ZM596.774 141.933C597.33 141.811 597.874 141.75 598.408 141.75H600.174C600.486 141.75 600.78 141.761 601.058 141.783C601.336 141.806 601.597 141.844 601.841 141.9C601.674 141.3 601.369 140.828 600.924 140.483C600.491 140.139 599.952 139.967 599.308 139.967C598.697 139.967 598.163 140.144 597.708 140.5C597.263 140.844 596.952 141.322 596.774 141.933ZM606.116 148V138H608.716V139.1C609.071 138.633 609.51 138.278 610.032 138.033C610.555 137.789 611.116 137.667 611.716 137.667C612.427 137.667 613.088 137.839 613.699 138.183C614.321 138.517 614.821 139.011 615.199 139.667C615.588 140.311 615.782 141.094 615.782 142.017V148H612.882V142.4C612.882 141.844 612.716 141.35 612.382 140.917C612.049 140.483 611.571 140.267 610.949 140.267C610.449 140.267 609.999 140.439 609.599 140.783C609.21 141.117 609.016 141.644 609.016 142.367V148H606.116ZM622.304 148.267C621.371 148.267 620.526 148.028 619.771 147.55C619.015 147.072 618.41 146.439 617.954 145.65C617.51 144.85 617.288 143.967 617.288 143C617.288 142.033 617.51 141.15 617.954 140.35C618.41 139.55 619.015 138.917 619.771 138.45C620.526 137.972 621.371 137.733 622.304 137.733C622.837 137.733 623.332 137.811 623.788 137.967C624.243 138.122 624.654 138.344 625.021 138.633V132H627.921V148H625.421V147.017C625.043 147.406 624.588 147.711 624.054 147.933C623.521 148.156 622.938 148.267 622.304 148.267ZM622.638 145.717C623.126 145.717 623.571 145.594 623.971 145.35C624.371 145.106 624.688 144.778 624.921 144.367C625.165 143.956 625.288 143.5 625.288 143C625.288 142.5 625.165 142.044 624.921 141.633C624.688 141.222 624.371 140.894 623.971 140.65C623.571 140.406 623.126 140.283 622.638 140.283C622.149 140.283 621.704 140.406 621.304 140.65C620.904 140.894 620.582 141.222 620.338 141.633C620.104 142.044 619.988 142.5 619.988 143C619.988 143.5 620.104 143.956 620.338 144.367C620.582 144.778 620.904 145.106 621.304 145.35C621.704 145.594 622.149 145.717 622.638 145.717Z"
fill="#1D2021" />
<path
d="M319.2 265L325.817 249.467H325.85L332.467 265H329.45L328.333 262.333H323.233L322.117 265H319.2ZM324.233 259.933H327.333L326.683 258.4C326.506 257.989 326.339 257.594 326.183 257.217C326.039 256.828 325.9 256.378 325.767 255.867C325.644 256.367 325.511 256.811 325.367 257.2C325.222 257.589 325.061 257.989 324.883 258.4L324.233 259.933ZM334.264 265V250H338.797C339.842 250 340.725 250.156 341.447 250.467C342.181 250.778 342.77 251.189 343.214 251.7C343.659 252.2 343.981 252.75 344.181 253.35C344.392 253.939 344.497 254.522 344.497 255.1C344.497 255.667 344.397 256.25 344.197 256.85C343.997 257.439 343.67 257.989 343.214 258.5C342.77 259 342.186 259.406 341.464 259.717C340.742 260.028 339.853 260.183 338.797 260.183H337.164V265H334.264ZM337.164 257.583H338.631C339.342 257.583 339.903 257.461 340.314 257.217C340.736 256.961 341.036 256.644 341.214 256.267C341.403 255.889 341.497 255.5 341.497 255.1C341.497 254.711 341.409 254.328 341.231 253.95C341.053 253.561 340.753 253.239 340.331 252.983C339.92 252.728 339.353 252.6 338.631 252.6H337.164V257.583ZM346.692 265V250H349.792V265H346.692Z"
fill="#1D2021" />
<path
d="M313.317 211.333C312.739 211.333 312.167 211.244 311.6 211.067C311.044 210.889 310.578 210.611 310.2 210.233L310.983 207.433C311.206 207.767 311.489 208.033 311.833 208.233C312.178 208.433 312.567 208.533 313 208.533C313.522 208.533 313.956 208.361 314.3 208.017C314.656 207.672 314.833 207.094 314.833 206.283V196H317.933V206.5C317.933 207.611 317.717 208.528 317.283 209.25C316.85 209.961 316.278 210.489 315.567 210.833C314.867 211.167 314.117 211.333 313.317 211.333ZM324.778 211.333C323.867 211.333 323 211.167 322.178 210.833C321.367 210.489 320.717 210.078 320.228 209.6L321.045 206.267C321.434 206.944 321.984 207.511 322.695 207.967C323.406 208.411 324.134 208.633 324.878 208.633C325.489 208.633 325.967 208.467 326.311 208.133C326.667 207.8 326.845 207.394 326.845 206.917C326.845 206.528 326.75 206.206 326.561 205.95C326.384 205.694 326.167 205.483 325.911 205.317C325.667 205.15 325.45 205.022 325.261 204.933L323.495 204.05C322.984 203.794 322.495 203.494 322.028 203.15C321.561 202.794 321.178 202.356 320.878 201.833C320.589 201.311 320.445 200.667 320.445 199.9C320.445 199.056 320.634 198.317 321.011 197.683C321.4 197.05 321.945 196.556 322.645 196.2C323.345 195.844 324.167 195.667 325.111 195.667C326 195.667 326.789 195.811 327.478 196.1C328.178 196.378 328.745 196.678 329.178 197L328.411 200.25C327.967 199.672 327.434 199.211 326.811 198.867C326.2 198.511 325.589 198.333 324.978 198.333C324.434 198.333 324.011 198.472 323.711 198.75C323.423 199.028 323.278 199.372 323.278 199.783C323.278 200.039 323.334 200.267 323.445 200.467C323.567 200.667 323.739 200.844 323.961 201C324.184 201.156 324.445 201.311 324.745 201.467L326.528 202.35C326.828 202.494 327.156 202.683 327.511 202.917C327.867 203.139 328.211 203.422 328.545 203.767C328.878 204.111 329.15 204.528 329.361 205.017C329.573 205.494 329.678 206.067 329.678 206.733C329.678 207.6 329.478 208.383 329.078 209.083C328.678 209.772 328.111 210.322 327.378 210.733C326.656 211.133 325.789 211.333 324.778 211.333ZM339.154 211.3C338.054 211.3 337.026 211.1 336.07 210.7C335.115 210.289 334.27 209.728 333.537 209.017C332.815 208.306 332.248 207.478 331.837 206.533C331.426 205.589 331.22 204.578 331.22 203.5C331.22 202.422 331.426 201.411 331.837 200.467C332.248 199.522 332.815 198.694 333.537 197.983C334.27 197.272 335.115 196.717 336.07 196.317C337.026 195.906 338.054 195.7 339.154 195.7C340.254 195.7 341.281 195.906 342.237 196.317C343.193 196.717 344.031 197.272 344.754 197.983C345.487 198.694 346.059 199.522 346.47 200.467C346.881 201.411 347.087 202.422 347.087 203.5C347.087 204.578 346.881 205.589 346.47 206.533C346.059 207.478 345.487 208.306 344.754 209.017C344.031 209.728 343.193 210.289 342.237 210.7C341.281 211.1 340.254 211.3 339.154 211.3ZM339.154 208.4C340.054 208.4 340.865 208.183 341.587 207.75C342.309 207.306 342.881 206.711 343.304 205.967C343.737 205.222 343.954 204.4 343.954 203.5C343.954 202.589 343.737 201.767 343.304 201.033C342.881 200.289 342.309 199.7 341.587 199.267C340.865 198.822 340.054 198.6 339.154 198.6C338.254 198.6 337.437 198.822 336.704 199.267C335.981 199.7 335.409 200.289 334.987 201.033C334.565 201.767 334.354 202.589 334.354 203.5C334.354 204.4 334.565 205.222 334.987 205.967C335.409 206.711 335.981 207.306 336.704 207.75C337.437 208.183 338.254 208.4 339.154 208.4ZM361.392 211.5L352.392 202.517V211H349.592V195.5L358.592 204.467V196H361.392V211.5Z"
fill="#EBDBB2" />
<path
d="M312.317 319.333C311.739 319.333 311.167 319.244 310.6 319.067C310.044 318.889 309.578 318.611 309.2 318.233L309.983 315.433C310.206 315.767 310.489 316.033 310.833 316.233C311.178 316.433 311.567 316.533 312 316.533C312.522 316.533 312.956 316.361 313.3 316.017C313.656 315.672 313.833 315.094 313.833 314.283V304H316.933V314.5C316.933 315.611 316.717 316.528 316.283 317.25C315.85 317.961 315.278 318.489 314.567 318.833C313.867 319.167 313.117 319.333 312.317 319.333ZM323.778 319.333C322.867 319.333 322 319.167 321.178 318.833C320.367 318.489 319.717 318.078 319.228 317.6L320.045 314.267C320.434 314.944 320.984 315.511 321.695 315.967C322.406 316.411 323.134 316.633 323.878 316.633C324.489 316.633 324.967 316.467 325.311 316.133C325.667 315.8 325.845 315.394 325.845 314.917C325.845 314.528 325.75 314.206 325.561 313.95C325.384 313.694 325.167 313.483 324.911 313.317C324.667 313.15 324.45 313.022 324.261 312.933L322.495 312.05C321.984 311.794 321.495 311.494 321.028 311.15C320.561 310.794 320.178 310.356 319.878 309.833C319.589 309.311 319.445 308.667 319.445 307.9C319.445 307.056 319.634 306.317 320.011 305.683C320.4 305.05 320.945 304.556 321.645 304.2C322.345 303.844 323.167 303.667 324.111 303.667C325 303.667 325.789 303.811 326.478 304.1C327.178 304.378 327.745 304.678 328.178 305L327.411 308.25C326.967 307.672 326.434 307.211 325.811 306.867C325.2 306.511 324.589 306.333 323.978 306.333C323.434 306.333 323.011 306.472 322.711 306.75C322.423 307.028 322.278 307.372 322.278 307.783C322.278 308.039 322.334 308.267 322.445 308.467C322.567 308.667 322.739 308.844 322.961 309C323.184 309.156 323.445 309.311 323.745 309.467L325.528 310.35C325.828 310.494 326.156 310.683 326.511 310.917C326.867 311.139 327.211 311.422 327.545 311.767C327.878 312.111 328.15 312.528 328.361 313.017C328.573 313.494 328.678 314.067 328.678 314.733C328.678 315.6 328.478 316.383 328.078 317.083C327.678 317.772 327.111 318.322 326.378 318.733C325.656 319.133 324.789 319.333 323.778 319.333ZM338.154 319.3C337.054 319.3 336.026 319.1 335.07 318.7C334.115 318.289 333.27 317.728 332.537 317.017C331.815 316.306 331.248 315.478 330.837 314.533C330.426 313.589 330.22 312.578 330.22 311.5C330.22 310.422 330.426 309.411 330.837 308.467C331.248 307.522 331.815 306.694 332.537 305.983C333.27 305.272 334.115 304.717 335.07 304.317C336.026 303.906 337.054 303.7 338.154 303.7C339.254 303.7 340.281 303.906 341.237 304.317C342.193 304.717 343.031 305.272 343.754 305.983C344.487 306.694 345.059 307.522 345.47 308.467C345.881 309.411 346.087 310.422 346.087 311.5C346.087 312.578 345.881 313.589 345.47 314.533C345.059 315.478 344.487 316.306 343.754 317.017C343.031 317.728 342.193 318.289 341.237 318.7C340.281 319.1 339.254 319.3 338.154 319.3ZM338.154 316.4C339.054 316.4 339.865 316.183 340.587 315.75C341.309 315.306 341.881 314.711 342.304 313.967C342.737 313.222 342.954 312.4 342.954 311.5C342.954 310.589 342.737 309.767 342.304 309.033C341.881 308.289 341.309 307.7 340.587 307.267C339.865 306.822 339.054 306.6 338.154 306.6C337.254 306.6 336.437 306.822 335.704 307.267C334.981 307.7 334.409 308.289 333.987 309.033C333.565 309.767 333.354 310.589 333.354 311.5C333.354 312.4 333.565 313.222 333.987 313.967C334.409 314.711 334.981 315.306 335.704 315.75C336.437 316.183 337.254 316.4 338.154 316.4ZM360.392 319.5L351.392 310.517V319H348.592V303.5L357.592 312.467V304H360.392V319.5Z"
fill="#EBDBB2" />
<path
d="M406.45 543.333C405.539 543.333 404.672 543.167 403.85 542.833C403.039 542.489 402.389 542.078 401.9 541.6L402.717 538.267C403.106 538.944 403.656 539.511 404.367 539.967C405.078 540.411 405.806 540.633 406.55 540.633C407.161 540.633 407.639 540.467 407.983 540.133C408.339 539.8 408.517 539.394 408.517 538.917C408.517 538.528 408.422 538.206 408.233 537.95C408.056 537.694 407.839 537.483 407.583 537.317C407.339 537.15 407.122 537.022 406.933 536.933L405.167 536.05C404.656 535.794 404.167 535.494 403.7 535.15C403.233 534.794 402.85 534.356 402.55 533.833C402.261 533.311 402.117 532.667 402.117 531.9C402.117 531.056 402.306 530.317 402.683 529.683C403.072 529.05 403.617 528.556 404.317 528.2C405.017 527.844 405.839 527.667 406.783 527.667C407.672 527.667 408.461 527.811 409.15 528.1C409.85 528.378 410.417 528.678 410.85 529L410.083 532.25C409.639 531.672 409.106 531.211 408.483 530.867C407.872 530.511 407.261 530.333 406.65 530.333C406.106 530.333 405.683 530.472 405.383 530.75C405.094 531.028 404.95 531.372 404.95 531.783C404.95 532.039 405.006 532.267 405.117 532.467C405.239 532.667 405.411 532.844 405.633 533C405.856 533.156 406.117 533.311 406.417 533.467L408.2 534.35C408.5 534.494 408.828 534.683 409.183 534.917C409.539 535.139 409.883 535.422 410.217 535.767C410.55 536.111 410.822 536.528 411.033 537.017C411.244 537.494 411.35 538.067 411.35 538.733C411.35 539.6 411.15 540.383 410.75 541.083C410.35 541.772 409.783 542.322 409.05 542.733C408.328 543.133 407.461 543.333 406.45 543.333ZM414.259 543V535.3H412.392V533H414.309V529.667H417.109V533H419.092V535.3H417.159V543H414.259ZM420.592 543V533H423.192V534.717C423.537 534.139 423.97 533.694 424.492 533.383C425.026 533.061 425.648 532.9 426.359 532.9L426.992 535.467C426.781 535.4 426.542 535.367 426.276 535.367C425.442 535.367 424.77 535.639 424.259 536.183C423.748 536.717 423.492 537.483 423.492 538.483V543H420.592ZM432.123 543.333C431.423 543.333 430.762 543.167 430.14 542.833C429.517 542.489 429.012 541.994 428.623 541.35C428.245 540.694 428.056 539.906 428.056 538.983V533H430.956V538.6C430.956 539.156 431.123 539.65 431.456 540.083C431.801 540.517 432.278 540.733 432.89 540.733C433.39 540.733 433.834 540.556 434.223 540.2C434.623 539.833 434.823 539.311 434.823 538.633V533H437.723V543H435.09V541.95C434.734 542.394 434.295 542.739 433.773 542.983C433.262 543.217 432.712 543.333 432.123 543.333ZM444.828 543.333C443.839 543.333 442.934 543.094 442.111 542.617C441.289 542.139 440.634 541.494 440.145 540.683C439.667 539.872 439.428 538.978 439.428 538C439.428 537.011 439.667 536.117 440.145 535.317C440.634 534.506 441.289 533.861 442.111 533.383C442.934 532.906 443.839 532.667 444.828 532.667C445.517 532.667 446.167 532.783 446.778 533.017C447.4 533.239 447.95 533.572 448.428 534.017L447.678 536.967C447.4 536.511 447.028 536.117 446.561 535.783C446.106 535.439 445.567 535.267 444.945 535.267C444.423 535.267 443.956 535.389 443.545 535.633C443.134 535.878 442.811 536.206 442.578 536.617C442.345 537.028 442.228 537.489 442.228 538C442.228 538.5 442.345 538.961 442.578 539.383C442.811 539.794 443.134 540.122 443.545 540.367C443.956 540.611 444.423 540.733 444.945 540.733C445.567 540.733 446.106 540.567 446.561 540.233C447.028 539.889 447.4 539.489 447.678 539.033L448.428 541.983C447.95 542.428 447.4 542.767 446.778 543C446.167 543.222 445.517 543.333 444.828 543.333ZM451.103 543V535.3H449.236V533H451.153V529.667H453.953V533H455.936V535.3H454.003V543H451.103ZM460.719 543.333C460.041 543.333 459.353 543.222 458.653 543C457.964 542.778 457.425 542.478 457.036 542.1L457.753 539.367C458.075 539.811 458.519 540.2 459.086 540.533C459.664 540.867 460.258 541.033 460.869 541.033C461.28 541.033 461.575 540.956 461.753 540.8C461.941 540.644 462.036 540.456 462.036 540.233C462.036 539.978 461.941 539.794 461.753 539.683C461.564 539.561 461.369 539.461 461.169 539.383L459.769 538.85C459.458 538.728 459.103 538.561 458.703 538.35C458.303 538.139 457.953 537.839 457.653 537.45C457.364 537.061 457.219 536.55 457.219 535.917C457.219 535.339 457.364 534.806 457.653 534.317C457.941 533.828 458.358 533.433 458.903 533.133C459.458 532.822 460.125 532.667 460.903 532.667C461.625 532.667 462.297 532.789 462.919 533.033C463.553 533.278 464.014 533.55 464.303 533.85L463.636 536.483C463.258 535.994 462.808 535.622 462.286 535.367C461.775 535.1 461.286 534.967 460.819 534.967C460.464 534.967 460.203 535.039 460.036 535.183C459.869 535.328 459.786 535.494 459.786 535.683C459.786 535.828 459.841 535.972 459.953 536.117C460.075 536.25 460.275 536.372 460.553 536.483L461.853 536.967C462.23 537.1 462.63 537.278 463.053 537.5C463.486 537.722 463.853 538.033 464.153 538.433C464.453 538.822 464.603 539.361 464.603 540.05C464.603 541.017 464.241 541.806 463.519 542.417C462.808 543.028 461.875 543.333 460.719 543.333Z"
fill="#EBDBB2" />
<path
d="M653.722 396.542C653.722 395.782 653.861 395.06 654.139 394.375C654.426 393.699 654.769 393.157 655.167 392.75L657.944 393.431C657.38 393.755 656.907 394.213 656.528 394.806C656.157 395.398 655.972 396.005 655.972 396.625C655.972 397.134 656.111 397.532 656.389 397.819C656.667 398.116 657.005 398.264 657.403 398.264C657.727 398.264 657.995 398.185 658.208 398.028C658.421 397.88 658.597 397.699 658.736 397.486C658.875 397.282 658.981 397.102 659.056 396.944L659.792 395.472C660.005 395.046 660.255 394.639 660.542 394.25C660.838 393.861 661.204 393.542 661.639 393.292C662.074 393.051 662.611 392.931 663.25 392.931C663.954 392.931 664.569 393.088 665.097 393.403C665.625 393.727 666.037 394.181 666.333 394.764C666.63 395.347 666.778 396.032 666.778 396.819C666.778 397.56 666.657 398.218 666.417 398.792C666.185 399.375 665.935 399.847 665.667 400.208L662.958 399.569C663.44 399.199 663.824 398.755 664.111 398.236C664.407 397.727 664.556 397.218 664.556 396.708C664.556 396.255 664.44 395.903 664.208 395.653C663.977 395.412 663.69 395.292 663.347 395.292C663.134 395.292 662.944 395.338 662.778 395.431C662.611 395.532 662.463 395.676 662.333 395.861C662.204 396.046 662.074 396.264 661.944 396.514L661.208 398C661.088 398.25 660.931 398.523 660.736 398.819C660.551 399.116 660.315 399.403 660.028 399.681C659.741 399.958 659.394 400.185 658.986 400.361C658.588 400.537 658.111 400.625 657.556 400.625C656.833 400.625 656.181 400.458 655.597 400.125C655.023 399.792 654.565 399.319 654.222 398.708C653.889 398.106 653.722 397.384 653.722 396.542ZM654 403.049H660.417V401.493H662.333V403.091H665.111V405.424H662.333V407.077H660.417V405.466H654V403.049ZM654 408.327H662.333V410.493H660.903C661.384 410.781 661.755 411.142 662.014 411.577C662.282 412.021 662.417 412.54 662.417 413.132L660.278 413.66C660.333 413.484 660.361 413.285 660.361 413.063C660.361 412.368 660.134 411.808 659.681 411.382C659.236 410.956 658.597 410.743 657.764 410.743H654V408.327ZM653.722 417.936C653.722 417.352 653.861 416.802 654.139 416.283C654.426 415.764 654.838 415.343 655.375 415.019C655.921 414.704 656.579 414.547 657.347 414.547H662.333V416.964H657.667C657.204 416.964 656.792 417.102 656.431 417.38C656.069 417.667 655.889 418.065 655.889 418.575C655.889 418.991 656.037 419.362 656.333 419.686C656.639 420.019 657.074 420.186 657.639 420.186H662.333V422.602H654V420.408H654.875C654.505 420.112 654.218 419.746 654.014 419.311C653.819 418.885 653.722 418.427 653.722 417.936ZM653.722 428.523C653.722 427.699 653.921 426.945 654.319 426.26C654.718 425.574 655.255 425.028 655.931 424.621C656.606 424.223 657.352 424.023 658.167 424.023C658.991 424.023 659.736 424.223 660.403 424.621C661.079 425.028 661.616 425.574 662.014 426.26C662.412 426.945 662.611 427.699 662.611 428.523C662.611 429.098 662.514 429.639 662.319 430.148C662.134 430.667 661.856 431.125 661.486 431.523L659.028 430.898C659.407 430.667 659.736 430.357 660.014 429.968C660.301 429.588 660.444 429.139 660.444 428.621C660.444 428.185 660.343 427.797 660.139 427.454C659.935 427.111 659.662 426.843 659.319 426.648C658.977 426.454 658.593 426.357 658.167 426.357C657.75 426.357 657.366 426.454 657.014 426.648C656.671 426.843 656.398 427.111 656.194 427.454C655.991 427.797 655.889 428.185 655.889 428.621C655.889 429.139 656.028 429.588 656.306 429.968C656.593 430.357 656.926 430.667 657.306 430.898L654.847 431.523C654.477 431.125 654.194 430.667 654 430.148C653.815 429.639 653.722 429.098 653.722 428.523ZM654 433.752H660.417V432.197H662.333V433.794H665.111V436.127H662.333V437.78H660.417V436.169H654V433.752ZM653.722 441.766C653.722 441.201 653.815 440.627 654 440.044C654.185 439.47 654.435 439.021 654.75 438.697L657.028 439.294C656.657 439.562 656.333 439.933 656.056 440.405C655.778 440.886 655.639 441.382 655.639 441.891C655.639 442.234 655.704 442.479 655.833 442.627C655.963 442.785 656.12 442.863 656.306 442.863C656.519 442.863 656.671 442.785 656.764 442.627C656.866 442.47 656.949 442.308 657.014 442.141L657.458 440.974C657.56 440.715 657.699 440.419 657.875 440.086C658.051 439.752 658.301 439.461 658.625 439.211C658.949 438.97 659.375 438.849 659.903 438.849C660.384 438.849 660.829 438.97 661.236 439.211C661.644 439.451 661.972 439.798 662.222 440.252C662.481 440.715 662.611 441.271 662.611 441.919C662.611 442.521 662.509 443.081 662.306 443.599C662.102 444.127 661.875 444.511 661.625 444.752L659.431 444.197C659.838 443.882 660.148 443.507 660.361 443.072C660.583 442.646 660.694 442.238 660.694 441.849C660.694 441.553 660.634 441.336 660.514 441.197C660.394 441.058 660.255 440.988 660.097 440.988C659.977 440.988 659.856 441.035 659.736 441.127C659.625 441.229 659.523 441.396 659.431 441.627L659.028 442.711C658.917 443.025 658.769 443.359 658.583 443.711C658.398 444.072 658.139 444.377 657.806 444.627C657.481 444.877 657.032 445.002 656.458 445.002C655.653 445.002 654.995 444.701 654.486 444.099C653.977 443.507 653.722 442.729 653.722 441.766Z"
fill="#EBDBB2" />
<path
d="M296.6 431V416H301.3C302.3 416 303.094 416.194 303.683 416.583C304.283 416.961 304.711 417.422 304.967 417.967C305.222 418.5 305.35 419.011 305.35 419.5C305.35 419.933 305.267 420.344 305.1 420.733C304.933 421.111 304.7 421.444 304.4 421.733C305.089 422.167 305.644 422.744 306.067 423.467C306.489 424.178 306.7 424.972 306.7 425.85C306.7 426.706 306.489 427.528 306.067 428.317C305.644 429.106 305.017 429.75 304.183 430.25C303.35 430.75 302.322 431 301.1 431H296.6ZM299.5 428.3H300.8C301.467 428.3 302 428.172 302.4 427.917C302.811 427.65 303.106 427.322 303.283 426.933C303.472 426.533 303.567 426.139 303.567 425.75C303.567 425.372 303.478 424.989 303.3 424.6C303.122 424.2 302.828 423.867 302.417 423.6C302.017 423.333 301.478 423.2 300.8 423.2H299.5V428.3ZM299.5 421.1H300.8C301.322 421.1 301.744 420.978 302.067 420.733C302.389 420.489 302.55 420.133 302.55 419.667C302.55 419.178 302.389 418.811 302.067 418.567C301.756 418.322 301.356 418.2 300.867 418.2H299.5V421.1ZM313.092 431.267C312.17 431.267 311.331 431.028 310.576 430.55C309.82 430.072 309.214 429.439 308.759 428.65C308.314 427.85 308.092 426.967 308.092 426C308.092 425.033 308.314 424.15 308.759 423.35C309.214 422.55 309.82 421.917 310.576 421.45C311.331 420.972 312.17 420.733 313.092 420.733C313.737 420.733 314.326 420.85 314.859 421.083C315.392 421.306 315.848 421.617 316.226 422.017V421H318.726V431H316.226V429.983C315.848 430.383 315.392 430.7 314.859 430.933C314.326 431.156 313.737 431.267 313.092 431.267ZM313.442 428.717C313.931 428.717 314.376 428.594 314.776 428.35C315.176 428.106 315.492 427.778 315.726 427.367C315.97 426.956 316.092 426.5 316.092 426C316.092 425.5 315.97 425.044 315.726 424.633C315.492 424.222 315.176 423.894 314.776 423.65C314.376 423.406 313.931 423.283 313.442 423.283C312.953 423.283 312.509 423.406 312.109 423.65C311.709 423.894 311.387 424.222 311.142 424.633C310.909 425.044 310.792 425.5 310.792 426C310.792 426.5 310.909 426.956 311.142 427.367C311.387 427.778 311.709 428.106 312.109 428.35C312.509 428.594 312.953 428.717 313.442 428.717ZM325.82 431.333C324.831 431.333 323.926 431.094 323.104 430.617C322.281 430.139 321.626 429.494 321.137 428.683C320.659 427.872 320.42 426.978 320.42 426C320.42 425.011 320.659 424.117 321.137 423.317C321.626 422.506 322.281 421.861 323.104 421.383C323.926 420.906 324.831 420.667 325.82 420.667C326.509 420.667 327.159 420.783 327.77 421.017C328.393 421.239 328.943 421.572 329.42 422.017L328.67 424.967C328.393 424.511 328.02 424.117 327.554 423.783C327.098 423.439 326.559 423.267 325.937 423.267C325.415 423.267 324.948 423.389 324.537 423.633C324.126 423.878 323.804 424.206 323.57 424.617C323.337 425.028 323.22 425.489 323.22 426C323.22 426.5 323.337 426.961 323.57 427.383C323.804 427.794 324.126 428.122 324.537 428.367C324.948 428.611 325.415 428.733 325.937 428.733C326.559 428.733 327.098 428.567 327.554 428.233C328.02 427.889 328.393 427.489 328.67 427.033L329.42 429.983C328.943 430.428 328.393 430.767 327.77 431C327.159 431.222 326.509 431.333 325.82 431.333ZM337.578 431L333.595 425.5L336.878 421H339.995L336.761 425.25L340.995 431H337.578ZM330.928 431V415H333.828V431H330.928ZM346.611 431.333C345.489 431.333 344.5 431.1 343.645 430.633C342.789 430.167 342.123 429.528 341.645 428.717C341.167 427.894 340.928 426.956 340.928 425.9C340.928 424.889 341.161 423.994 341.628 423.217C342.095 422.428 342.723 421.806 343.511 421.35C344.311 420.894 345.195 420.667 346.161 420.667C347.15 420.667 348.034 420.894 348.811 421.35C349.589 421.794 350.2 422.406 350.645 423.183C351.1 423.961 351.328 424.844 351.328 425.833V426.85H345.228C344.95 426.85 344.684 426.833 344.428 426.8C344.173 426.767 343.917 426.728 343.661 426.683C343.795 427.35 344.123 427.894 344.645 428.317C345.178 428.728 345.856 428.933 346.678 428.933C347.311 428.933 347.878 428.806 348.378 428.55C348.889 428.294 349.306 427.978 349.628 427.6L350.261 430.2C349.761 430.578 349.195 430.861 348.561 431.05C347.939 431.239 347.289 431.333 346.611 431.333ZM343.595 424.933C344.15 424.811 344.695 424.75 345.228 424.75H346.995C347.306 424.75 347.6 424.761 347.878 424.783C348.156 424.806 348.417 424.844 348.661 424.9C348.495 424.3 348.189 423.828 347.745 423.483C347.311 423.139 346.773 422.967 346.128 422.967C345.517 422.967 344.984 423.144 344.528 423.5C344.084 423.844 343.773 424.322 343.595 424.933ZM352.936 431V421H355.536V422.1C355.891 421.633 356.33 421.278 356.853 421.033C357.375 420.789 357.936 420.667 358.536 420.667C359.247 420.667 359.908 420.839 360.519 421.183C361.141 421.517 361.641 422.011 362.019 422.667C362.408 423.311 362.603 424.094 362.603 425.017V431H359.703V425.4C359.703 424.844 359.536 424.35 359.203 423.917C358.869 423.483 358.391 423.267 357.769 423.267C357.269 423.267 356.819 423.439 356.419 423.783C356.03 424.117 355.836 424.644 355.836 425.367V431H352.936ZM369.124 431.267C368.191 431.267 367.347 431.028 366.591 430.55C365.836 430.072 365.23 429.439 364.774 428.65C364.33 427.85 364.108 426.967 364.108 426C364.108 425.033 364.33 424.15 364.774 423.35C365.23 422.55 365.836 421.917 366.591 421.45C367.347 420.972 368.191 420.733 369.124 420.733C369.658 420.733 370.152 420.811 370.608 420.967C371.063 421.122 371.474 421.344 371.841 421.633V415H374.741V431H372.241V430.017C371.863 430.406 371.408 430.711 370.874 430.933C370.341 431.156 369.758 431.267 369.124 431.267ZM369.458 428.717C369.947 428.717 370.391 428.594 370.791 428.35C371.191 428.106 371.508 427.778 371.741 427.367C371.986 426.956 372.108 426.5 372.108 426C372.108 425.5 371.986 425.044 371.741 424.633C371.508 424.222 371.191 423.894 370.791 423.65C370.391 423.406 369.947 423.283 369.458 423.283C368.969 423.283 368.524 423.406 368.124 423.65C367.724 423.894 367.402 424.222 367.158 424.633C366.924 425.044 366.808 425.5 366.808 426C366.808 426.5 366.924 426.956 367.158 427.367C367.402 427.778 367.724 428.106 368.124 428.35C368.524 428.594 368.969 428.717 369.458 428.717Z"
fill="#1D2021" />
<path
d="M700 363.6H715.5L706.633 370.733L715.5 377.733H700V374.833H704.3C704.789 374.833 705.339 374.839 705.95 374.85C706.561 374.872 707.261 374.928 708.05 375.017C707.472 374.672 706.972 374.339 706.55 374.017C706.128 373.706 705.739 373.417 705.383 373.15L702.083 370.683L705.383 368.133C705.717 367.878 706.117 367.572 706.583 367.217C707.061 366.872 707.567 366.539 708.1 366.217C707.289 366.306 706.578 366.356 705.967 366.367C705.356 366.389 704.8 366.4 704.3 366.4H700V363.6ZM700 380.477H710V383.377H700V380.477ZM711.45 381.927C711.45 381.494 711.6 381.127 711.9 380.827C712.2 380.527 712.567 380.377 713 380.377C713.444 380.377 713.811 380.527 714.1 380.827C714.4 381.127 714.55 381.494 714.55 381.927C714.55 382.372 714.4 382.738 714.1 383.027C713.811 383.327 713.444 383.477 713 383.477C712.567 383.477 712.2 383.327 711.9 383.027C711.6 382.738 711.45 382.372 711.45 381.927ZM699.667 390.5C699.667 389.511 699.906 388.606 700.383 387.783C700.861 386.961 701.506 386.306 702.317 385.817C703.128 385.339 704.022 385.1 705 385.1C705.989 385.1 706.883 385.339 707.683 385.817C708.494 386.306 709.139 386.961 709.617 387.783C710.094 388.606 710.333 389.511 710.333 390.5C710.333 391.189 710.217 391.839 709.983 392.45C709.761 393.072 709.428 393.622 708.983 394.1L706.033 393.35C706.489 393.072 706.883 392.7 707.217 392.233C707.561 391.778 707.733 391.239 707.733 390.617C707.733 390.094 707.611 389.628 707.367 389.217C707.122 388.806 706.794 388.483 706.383 388.25C705.972 388.017 705.511 387.9 705 387.9C704.5 387.9 704.039 388.017 703.617 388.25C703.206 388.483 702.878 388.806 702.633 389.217C702.389 389.628 702.267 390.094 702.267 390.617C702.267 391.239 702.433 391.778 702.767 392.233C703.111 392.7 703.511 393.072 703.967 393.35L701.017 394.1C700.572 393.622 700.233 393.072 700 392.45C699.778 391.839 699.667 391.189 699.667 390.5ZM700 395.608H710V398.208H708.283C708.861 398.552 709.306 398.986 709.617 399.508C709.939 400.041 710.1 400.663 710.1 401.374L707.533 402.008C707.6 401.797 707.633 401.558 707.633 401.291C707.633 400.458 707.361 399.786 706.817 399.274C706.283 398.763 705.517 398.508 704.517 398.508H700V395.608ZM699.667 407.844C699.667 406.855 699.906 405.949 700.383 405.127C700.861 404.305 701.506 403.649 702.317 403.16C703.128 402.683 704.022 402.444 705 402.444C705.989 402.444 706.883 402.683 707.683 403.16C708.494 403.649 709.139 404.305 709.617 405.127C710.094 405.949 710.333 406.855 710.333 407.844C710.333 408.844 710.094 409.749 709.617 410.56C709.139 411.383 708.494 412.033 707.683 412.51C706.883 412.999 705.989 413.244 705 413.244C704.022 413.244 703.128 412.999 702.317 412.51C701.506 412.033 700.861 411.383 700.383 410.56C699.906 409.749 699.667 408.844 699.667 407.844ZM702.267 407.844C702.267 408.344 702.389 408.794 702.633 409.194C702.878 409.605 703.206 409.927 703.617 410.16C704.039 410.405 704.5 410.527 705 410.527C705.511 410.527 705.972 410.405 706.383 410.16C706.794 409.927 707.122 409.605 707.367 409.194C707.611 408.794 707.733 408.344 707.733 407.844C707.733 407.344 707.611 406.888 707.367 406.477C707.122 406.077 706.794 405.755 706.383 405.51C705.972 405.277 705.511 405.16 705 405.16C704.5 405.16 704.039 405.277 703.617 405.51C703.206 405.755 702.878 406.077 702.633 406.477C702.389 406.888 702.267 407.344 702.267 407.844ZM699.667 423.219C699.667 422.541 699.778 421.853 700 421.153C700.222 420.464 700.522 419.925 700.9 419.536L703.633 420.253C703.189 420.575 702.8 421.019 702.467 421.586C702.133 422.164 701.967 422.758 701.967 423.369C701.967 423.78 702.044 424.075 702.2 424.253C702.356 424.441 702.544 424.536 702.767 424.536C703.022 424.536 703.206 424.441 703.317 424.253C703.439 424.064 703.539 423.869 703.617 423.669L704.15 422.269C704.272 421.958 704.439 421.603 704.65 421.203C704.861 420.803 705.161 420.453 705.55 420.153C705.939 419.864 706.45 419.719 707.083 419.719C707.661 419.719 708.194 419.864 708.683 420.153C709.172 420.441 709.567 420.858 709.867 421.403C710.178 421.958 710.333 422.625 710.333 423.403C710.333 424.125 710.211 424.797 709.967 425.419C709.722 426.053 709.45 426.514 709.15 426.803L706.517 426.136C707.006 425.758 707.378 425.308 707.633 424.786C707.9 424.275 708.033 423.786 708.033 423.319C708.033 422.964 707.961 422.703 707.817 422.536C707.672 422.369 707.506 422.286 707.317 422.286C707.172 422.286 707.028 422.341 706.883 422.453C706.75 422.575 706.628 422.775 706.517 423.053L706.033 424.353C705.9 424.73 705.722 425.13 705.5 425.553C705.278 425.986 704.967 426.353 704.567 426.653C704.178 426.953 703.639 427.103 702.95 427.103C701.983 427.103 701.194 426.741 700.583 426.019C699.972 425.308 699.667 424.375 699.667 423.219ZM699.667 433.955C699.667 432.833 699.9 431.844 700.367 430.989C700.833 430.133 701.472 429.466 702.283 428.989C703.106 428.511 704.044 428.272 705.1 428.272C706.111 428.272 707.006 428.505 707.783 428.972C708.572 429.439 709.194 430.066 709.65 430.855C710.106 431.655 710.333 432.539 710.333 433.505C710.333 434.494 710.106 435.377 709.65 436.155C709.206 436.933 708.594 437.544 707.817 437.989C707.039 438.444 706.156 438.672 705.167 438.672H704.15V432.572C704.15 432.294 704.167 432.027 704.2 431.772C704.233 431.516 704.272 431.261 704.317 431.005C703.65 431.139 703.106 431.466 702.683 431.989C702.272 432.522 702.067 433.2 702.067 434.022C702.067 434.655 702.194 435.222 702.45 435.722C702.706 436.233 703.022 436.65 703.4 436.972L700.8 437.605C700.422 437.105 700.139 436.539 699.95 435.905C699.761 435.283 699.667 434.633 699.667 433.955ZM706.067 430.939C706.189 431.494 706.25 432.039 706.25 432.572V434.339C706.25 434.65 706.239 434.944 706.217 435.222C706.194 435.5 706.156 435.761 706.1 436.005C706.7 435.839 707.172 435.533 707.517 435.089C707.861 434.655 708.033 434.116 708.033 433.472C708.033 432.861 707.856 432.327 707.5 431.872C707.156 431.427 706.678 431.116 706.067 430.939ZM700 440.28H710V442.88H708.283C708.861 443.224 709.306 443.657 709.617 444.18C709.939 444.713 710.1 445.335 710.1 446.046L707.533 446.68C707.6 446.469 707.633 446.23 707.633 445.963C707.633 445.13 707.361 444.457 706.817 443.946C706.283 443.435 705.517 443.18 704.517 443.18H700V440.28ZM699.5 452.427L710 446.944V450.16L706.783 451.727C706.506 451.872 706.228 452.005 705.95 452.127C705.683 452.249 705.378 452.372 705.033 452.494C705.378 452.616 705.683 452.738 705.95 452.86C706.228 452.983 706.506 453.116 706.783 453.26L710 454.827V457.91L699.5 452.427ZM700 459.133H710V462.033H700V459.133ZM711.45 460.583C711.45 460.15 711.6 459.783 711.9 459.483C712.2 459.183 712.567 459.033 713 459.033C713.444 459.033 713.811 459.183 714.1 459.483C714.4 459.783 714.55 460.15 714.55 460.583C714.55 461.028 714.4 461.394 714.1 461.683C713.811 461.983 713.444 462.133 713 462.133C712.567 462.133 712.2 461.983 711.9 461.683C711.6 461.394 711.45 461.028 711.45 460.583ZM699.667 469.156C699.667 468.167 699.906 467.262 700.383 466.44C700.861 465.617 701.506 464.962 702.317 464.473C703.128 463.995 704.022 463.756 705 463.756C705.989 463.756 706.883 463.995 707.683 464.473C708.494 464.962 709.139 465.617 709.617 466.44C710.094 467.262 710.333 468.167 710.333 469.156C710.333 469.845 710.217 470.495 709.983 471.106C709.761 471.728 709.428 472.278 708.983 472.756L706.033 472.006C706.489 471.728 706.883 471.356 707.217 470.89C707.561 470.434 707.733 469.895 707.733 469.273C707.733 468.751 707.611 468.284 707.367 467.873C707.122 467.462 706.794 467.14 706.383 466.906C705.972 466.673 705.511 466.556 705 466.556C704.5 466.556 704.039 466.673 703.617 466.906C703.206 467.14 702.878 467.462 702.633 467.873C702.389 468.284 702.267 468.751 702.267 469.273C702.267 469.895 702.433 470.434 702.767 470.89C703.111 471.356 703.511 471.728 703.967 472.006L701.017 472.756C700.572 472.278 700.233 471.728 700 471.106C699.778 470.495 699.667 469.845 699.667 469.156ZM699.667 479.447C699.667 478.325 699.9 477.336 700.367 476.481C700.833 475.625 701.472 474.959 702.283 474.481C703.106 474.003 704.044 473.764 705.1 473.764C706.111 473.764 707.006 473.997 707.783 474.464C708.572 474.931 709.194 475.559 709.65 476.347C710.106 477.147 710.333 478.031 710.333 478.997C710.333 479.986 710.106 480.87 709.65 481.647C709.206 482.425 708.594 483.036 707.817 483.481C707.039 483.936 706.156 484.164 705.167 484.164H704.15V478.064C704.15 477.786 704.167 477.52 704.2 477.264C704.233 477.009 704.272 476.753 704.317 476.497C703.65 476.631 703.106 476.959 702.683 477.481C702.272 478.014 702.067 478.692 702.067 479.514C702.067 480.147 702.194 480.714 702.45 481.214C702.706 481.725 703.022 482.142 703.4 482.464L700.8 483.097C700.422 482.597 700.139 482.031 699.95 481.397C699.761 480.775 699.667 480.125 699.667 479.447ZM706.067 476.431C706.189 476.986 706.25 477.531 706.25 478.064V479.831C706.25 480.142 706.239 480.436 706.217 480.714C706.194 480.992 706.156 481.253 706.1 481.497C706.7 481.331 707.172 481.025 707.517 480.581C707.861 480.147 708.033 479.609 708.033 478.964C708.033 478.353 707.856 477.82 707.5 477.364C707.156 476.92 706.678 476.609 706.067 476.431Z"
fill="#1D2021" />
<path
d="M798 363.6H813.5L804.633 370.733L813.5 377.733H798V374.833H802.3C802.789 374.833 803.339 374.839 803.95 374.85C804.561 374.872 805.261 374.928 806.05 375.017C805.472 374.672 804.972 374.339 804.55 374.017C804.128 373.706 803.739 373.417 803.383 373.15L800.083 370.683L803.383 368.133C803.717 367.878 804.117 367.572 804.583 367.217C805.061 366.872 805.567 366.539 806.1 366.217C805.289 366.306 804.578 366.356 803.967 366.367C803.356 366.389 802.8 366.4 802.3 366.4H798V363.6ZM798 380.477H808V383.377H798V380.477ZM809.45 381.927C809.45 381.494 809.6 381.127 809.9 380.827C810.2 380.527 810.567 380.377 811 380.377C811.444 380.377 811.811 380.527 812.1 380.827C812.4 381.127 812.55 381.494 812.55 381.927C812.55 382.372 812.4 382.738 812.1 383.027C811.811 383.327 811.444 383.477 811 383.477C810.567 383.477 810.2 383.327 809.9 383.027C809.6 382.738 809.45 382.372 809.45 381.927ZM797.667 390.5C797.667 389.511 797.906 388.606 798.383 387.783C798.861 386.961 799.506 386.306 800.317 385.817C801.128 385.339 802.022 385.1 803 385.1C803.989 385.1 804.883 385.339 805.683 385.817C806.494 386.306 807.139 386.961 807.617 387.783C808.094 388.606 808.333 389.511 808.333 390.5C808.333 391.189 808.217 391.839 807.983 392.45C807.761 393.072 807.428 393.622 806.983 394.1L804.033 393.35C804.489 393.072 804.883 392.7 805.217 392.233C805.561 391.778 805.733 391.239 805.733 390.617C805.733 390.094 805.611 389.628 805.367 389.217C805.122 388.806 804.794 388.483 804.383 388.25C803.972 388.017 803.511 387.9 803 387.9C802.5 387.9 802.039 388.017 801.617 388.25C801.206 388.483 800.878 388.806 800.633 389.217C800.389 389.628 800.267 390.094 800.267 390.617C800.267 391.239 800.433 391.778 800.767 392.233C801.111 392.7 801.511 393.072 801.967 393.35L799.017 394.1C798.572 393.622 798.233 393.072 798 392.45C797.778 391.839 797.667 391.189 797.667 390.5ZM798 395.608H808V398.208H806.283C806.861 398.552 807.306 398.986 807.617 399.508C807.939 400.041 808.1 400.663 808.1 401.374L805.533 402.008C805.6 401.797 805.633 401.558 805.633 401.291C805.633 400.458 805.361 399.786 804.817 399.274C804.283 398.763 803.517 398.508 802.517 398.508H798V395.608ZM797.667 407.844C797.667 406.855 797.906 405.949 798.383 405.127C798.861 404.305 799.506 403.649 800.317 403.16C801.128 402.683 802.022 402.444 803 402.444C803.989 402.444 804.883 402.683 805.683 403.16C806.494 403.649 807.139 404.305 807.617 405.127C808.094 405.949 808.333 406.855 808.333 407.844C808.333 408.844 808.094 409.749 807.617 410.56C807.139 411.383 806.494 412.033 805.683 412.51C804.883 412.999 803.989 413.244 803 413.244C802.022 413.244 801.128 412.999 800.317 412.51C799.506 412.033 798.861 411.383 798.383 410.56C797.906 409.749 797.667 408.844 797.667 407.844ZM800.267 407.844C800.267 408.344 800.389 408.794 800.633 409.194C800.878 409.605 801.206 409.927 801.617 410.16C802.039 410.405 802.5 410.527 803 410.527C803.511 410.527 803.972 410.405 804.383 410.16C804.794 409.927 805.122 409.605 805.367 409.194C805.611 408.794 805.733 408.344 805.733 407.844C805.733 407.344 805.611 406.888 805.367 406.477C805.122 406.077 804.794 405.755 804.383 405.51C803.972 405.277 803.511 405.16 803 405.16C802.5 405.16 802.039 405.277 801.617 405.51C801.206 405.755 800.878 406.077 800.633 406.477C800.389 406.888 800.267 407.344 800.267 407.844ZM797.667 423.219C797.667 422.541 797.778 421.853 798 421.153C798.222 420.464 798.522 419.925 798.9 419.536L801.633 420.253C801.189 420.575 800.8 421.019 800.467 421.586C800.133 422.164 799.967 422.758 799.967 423.369C799.967 423.78 800.044 424.075 800.2 424.253C800.356 424.441 800.544 424.536 800.767 424.536C801.022 424.536 801.206 424.441 801.317 424.253C801.439 424.064 801.539 423.869 801.617 423.669L802.15 422.269C802.272 421.958 802.439 421.603 802.65 421.203C802.861 420.803 803.161 420.453 803.55 420.153C803.939 419.864 804.45 419.719 805.083 419.719C805.661 419.719 806.194 419.864 806.683 420.153C807.172 420.441 807.567 420.858 807.867 421.403C808.178 421.958 808.333 422.625 808.333 423.403C808.333 424.125 808.211 424.797 807.967 425.419C807.722 426.053 807.45 426.514 807.15 426.803L804.517 426.136C805.006 425.758 805.378 425.308 805.633 424.786C805.9 424.275 806.033 423.786 806.033 423.319C806.033 422.964 805.961 422.703 805.817 422.536C805.672 422.369 805.506 422.286 805.317 422.286C805.172 422.286 805.028 422.341 804.883 422.453C804.75 422.575 804.628 422.775 804.517 423.053L804.033 424.353C803.9 424.73 803.722 425.13 803.5 425.553C803.278 425.986 802.967 426.353 802.567 426.653C802.178 426.953 801.639 427.103 800.95 427.103C799.983 427.103 799.194 426.741 798.583 426.019C797.972 425.308 797.667 424.375 797.667 423.219ZM797.667 433.955C797.667 432.833 797.9 431.844 798.367 430.989C798.833 430.133 799.472 429.466 800.283 428.989C801.106 428.511 802.044 428.272 803.1 428.272C804.111 428.272 805.006 428.505 805.783 428.972C806.572 429.439 807.194 430.066 807.65 430.855C808.106 431.655 808.333 432.539 808.333 433.505C808.333 434.494 808.106 435.377 807.65 436.155C807.206 436.933 806.594 437.544 805.817 437.989C805.039 438.444 804.156 438.672 803.167 438.672H802.15V432.572C802.15 432.294 802.167 432.027 802.2 431.772C802.233 431.516 802.272 431.261 802.317 431.005C801.65 431.139 801.106 431.466 800.683 431.989C800.272 432.522 800.067 433.2 800.067 434.022C800.067 434.655 800.194 435.222 800.45 435.722C800.706 436.233 801.022 436.65 801.4 436.972L798.8 437.605C798.422 437.105 798.139 436.539 797.95 435.905C797.761 435.283 797.667 434.633 797.667 433.955ZM804.067 430.939C804.189 431.494 804.25 432.039 804.25 432.572V434.339C804.25 434.65 804.239 434.944 804.217 435.222C804.194 435.5 804.156 435.761 804.1 436.005C804.7 435.839 805.172 435.533 805.517 435.089C805.861 434.655 806.033 434.116 806.033 433.472C806.033 432.861 805.856 432.327 805.5 431.872C805.156 431.427 804.678 431.116 804.067 430.939ZM798 440.28H808V442.88H806.283C806.861 443.224 807.306 443.657 807.617 444.18C807.939 444.713 808.1 445.335 808.1 446.046L805.533 446.68C805.6 446.469 805.633 446.23 805.633 445.963C805.633 445.13 805.361 444.457 804.817 443.946C804.283 443.435 803.517 443.18 802.517 443.18H798V440.28ZM797.5 452.427L808 446.944V450.16L804.783 451.727C804.506 451.872 804.228 452.005 803.95 452.127C803.683 452.249 803.378 452.372 803.033 452.494C803.378 452.616 803.683 452.738 803.95 452.86C804.228 452.983 804.506 453.116 804.783 453.26L808 454.827V457.91L797.5 452.427ZM798 459.133H808V462.033H798V459.133ZM809.45 460.583C809.45 460.15 809.6 459.783 809.9 459.483C810.2 459.183 810.567 459.033 811 459.033C811.444 459.033 811.811 459.183 812.1 459.483C812.4 459.783 812.55 460.15 812.55 460.583C812.55 461.028 812.4 461.394 812.1 461.683C811.811 461.983 811.444 462.133 811 462.133C810.567 462.133 810.2 461.983 809.9 461.683C809.6 461.394 809.45 461.028 809.45 460.583ZM797.667 469.156C797.667 468.167 797.906 467.262 798.383 466.44C798.861 465.617 799.506 464.962 800.317 464.473C801.128 463.995 802.022 463.756 803 463.756C803.989 463.756 804.883 463.995 805.683 464.473C806.494 464.962 807.139 465.617 807.617 466.44C808.094 467.262 808.333 468.167 808.333 469.156C808.333 469.845 808.217 470.495 807.983 471.106C807.761 471.728 807.428 472.278 806.983 472.756L804.033 472.006C804.489 471.728 804.883 471.356 805.217 470.89C805.561 470.434 805.733 469.895 805.733 469.273C805.733 468.751 805.611 468.284 805.367 467.873C805.122 467.462 804.794 467.14 804.383 466.906C803.972 466.673 803.511 466.556 803 466.556C802.5 466.556 802.039 466.673 801.617 466.906C801.206 467.14 800.878 467.462 800.633 467.873C800.389 468.284 800.267 468.751 800.267 469.273C800.267 469.895 800.433 470.434 800.767 470.89C801.111 471.356 801.511 471.728 801.967 472.006L799.017 472.756C798.572 472.278 798.233 471.728 798 471.106C797.778 470.495 797.667 469.845 797.667 469.156ZM797.667 479.447C797.667 478.325 797.9 477.336 798.367 476.481C798.833 475.625 799.472 474.959 800.283 474.481C801.106 474.003 802.044 473.764 803.1 473.764C804.111 473.764 805.006 473.997 805.783 474.464C806.572 474.931 807.194 475.559 807.65 476.347C808.106 477.147 808.333 478.031 808.333 478.997C808.333 479.986 808.106 480.87 807.65 481.647C807.206 482.425 806.594 483.036 805.817 483.481C805.039 483.936 804.156 484.164 803.167 484.164H802.15V478.064C802.15 477.786 802.167 477.52 802.2 477.264C802.233 477.009 802.272 476.753 802.317 476.497C801.65 476.631 801.106 476.959 800.683 477.481C800.272 478.014 800.067 478.692 800.067 479.514C800.067 480.147 800.194 480.714 800.45 481.214C800.706 481.725 801.022 482.142 801.4 482.464L798.8 483.097C798.422 482.597 798.139 482.031 797.95 481.397C797.761 480.775 797.667 480.125 797.667 479.447ZM804.067 476.431C804.189 476.986 804.25 477.531 804.25 478.064V479.831C804.25 480.142 804.239 480.436 804.217 480.714C804.194 480.992 804.156 481.253 804.1 481.497C804.7 481.331 805.172 481.025 805.517 480.581C805.861 480.147 806.033 479.609 806.033 478.964C806.033 478.353 805.856 477.82 805.5 477.364C805.156 476.92 804.678 476.609 804.067 476.431Z"
fill="#1D2021" />
<path
d="M388.6 634V619H393.7C394.9 619 395.989 619.194 396.967 619.583C397.956 619.972 398.806 620.511 399.517 621.2C400.239 621.878 400.794 622.672 401.183 623.583C401.572 624.494 401.767 625.467 401.767 626.5C401.767 627.533 401.572 628.506 401.183 629.417C400.794 630.328 400.239 631.128 399.517 631.817C398.806 632.494 397.956 633.028 396.967 633.417C395.989 633.806 394.9 634 393.7 634H388.6ZM391.5 631.3H393.433C394.278 631.3 395.022 631.178 395.667 630.933C396.311 630.678 396.85 630.333 397.283 629.9C397.728 629.456 398.061 628.944 398.283 628.367C398.517 627.789 398.633 627.167 398.633 626.5C398.633 625.833 398.517 625.211 398.283 624.633C398.061 624.044 397.728 623.533 397.283 623.1C396.85 622.656 396.311 622.311 395.667 622.067C395.022 621.822 394.278 621.7 393.433 621.7H391.5V631.3ZM408.256 634.267C407.334 634.267 406.495 634.028 405.74 633.55C404.984 633.072 404.378 632.439 403.923 631.65C403.478 630.85 403.256 629.967 403.256 629C403.256 628.033 403.478 627.15 403.923 626.35C404.378 625.55 404.984 624.917 405.74 624.45C406.495 623.972 407.334 623.733 408.256 623.733C408.901 623.733 409.49 623.85 410.023 624.083C410.556 624.306 411.012 624.617 411.39 625.017V624H413.89V634H411.39V632.983C411.012 633.383 410.556 633.7 410.023 633.933C409.49 634.156 408.901 634.267 408.256 634.267ZM408.606 631.717C409.095 631.717 409.54 631.594 409.94 631.35C410.34 631.106 410.656 630.778 410.89 630.367C411.134 629.956 411.256 629.5 411.256 629C411.256 628.5 411.134 628.044 410.89 627.633C410.656 627.222 410.34 626.894 409.94 626.65C409.54 626.406 409.095 626.283 408.606 626.283C408.117 626.283 407.673 626.406 407.273 626.65C406.873 626.894 406.551 627.222 406.306 627.633C406.073 628.044 405.956 628.5 405.956 629C405.956 629.5 406.073 629.956 406.306 630.367C406.551 630.778 406.873 631.106 407.273 631.35C407.673 631.594 408.117 631.717 408.606 631.717ZM417.251 634V626.3H415.384V624H417.301V620.667H420.101V624H422.084V626.3H420.151V634H417.251ZM427.592 634.267C426.67 634.267 425.831 634.028 425.076 633.55C424.32 633.072 423.714 632.439 423.259 631.65C422.814 630.85 422.592 629.967 422.592 629C422.592 628.033 422.814 627.15 423.259 626.35C423.714 625.55 424.32 624.917 425.076 624.45C425.831 623.972 426.67 623.733 427.592 623.733C428.237 623.733 428.826 623.85 429.359 624.083C429.892 624.306 430.348 624.617 430.726 625.017V624H433.226V634H430.726V632.983C430.348 633.383 429.892 633.7 429.359 633.933C428.826 634.156 428.237 634.267 427.592 634.267ZM427.942 631.717C428.431 631.717 428.876 631.594 429.276 631.35C429.676 631.106 429.992 630.778 430.226 630.367C430.47 629.956 430.592 629.5 430.592 629C430.592 628.5 430.47 628.044 430.226 627.633C429.992 627.222 429.676 626.894 429.276 626.65C428.876 626.406 428.431 626.283 427.942 626.283C427.453 626.283 427.009 626.406 426.609 626.65C426.209 626.894 425.887 627.222 425.642 627.633C425.409 628.044 425.292 628.5 425.292 629C425.292 629.5 425.409 629.956 425.642 630.367C425.887 630.778 426.209 631.106 426.609 631.35C427.009 631.594 427.453 631.717 427.942 631.717ZM441.037 634.267C440.404 634.267 439.82 634.156 439.287 633.933C438.765 633.711 438.309 633.406 437.92 633.017V634H435.42V618H438.32V624.633C438.687 624.344 439.098 624.122 439.554 623.967C440.009 623.811 440.504 623.733 441.037 623.733C441.97 623.733 442.815 623.972 443.57 624.45C444.326 624.917 444.926 625.55 445.37 626.35C445.826 627.15 446.054 628.033 446.054 629C446.054 629.967 445.826 630.85 445.37 631.65C444.926 632.439 444.326 633.072 443.57 633.55C442.815 634.028 441.97 634.267 441.037 634.267ZM440.704 631.717C441.193 631.717 441.637 631.594 442.037 631.35C442.437 631.106 442.754 630.778 442.987 630.367C443.231 629.956 443.354 629.5 443.354 629C443.354 628.5 443.231 628.044 442.987 627.633C442.754 627.222 442.437 626.894 442.037 626.65C441.637 626.406 441.193 626.283 440.704 626.283C440.215 626.283 439.77 626.406 439.37 626.65C438.97 626.894 438.648 627.222 438.404 627.633C438.17 628.044 438.054 628.5 438.054 629C438.054 629.5 438.17 629.956 438.404 630.367C438.648 630.778 438.97 631.106 439.37 631.35C439.77 631.594 440.215 631.717 440.704 631.717ZM452.248 634.267C451.326 634.267 450.487 634.028 449.732 633.55C448.976 633.072 448.371 632.439 447.915 631.65C447.471 630.85 447.248 629.967 447.248 629C447.248 628.033 447.471 627.15 447.915 626.35C448.371 625.55 448.976 624.917 449.732 624.45C450.487 623.972 451.326 623.733 452.248 623.733C452.893 623.733 453.482 623.85 454.015 624.083C454.548 624.306 455.004 624.617 455.382 625.017V624H457.882V634H455.382V632.983C455.004 633.383 454.548 633.7 454.015 633.933C453.482 634.156 452.893 634.267 452.248 634.267ZM452.598 631.717C453.087 631.717 453.532 631.594 453.932 631.35C454.332 631.106 454.648 630.778 454.882 630.367C455.126 629.956 455.248 629.5 455.248 629C455.248 628.5 455.126 628.044 454.882 627.633C454.648 627.222 454.332 626.894 453.932 626.65C453.532 626.406 453.087 626.283 452.598 626.283C452.11 626.283 451.665 626.406 451.265 626.65C450.865 626.894 450.543 627.222 450.298 627.633C450.065 628.044 449.948 628.5 449.948 629C449.948 629.5 450.065 629.956 450.298 630.367C450.543 630.778 450.865 631.106 451.265 631.35C451.665 631.594 452.11 631.717 452.598 631.717ZM463.36 634.333C462.682 634.333 461.993 634.222 461.293 634C460.604 633.778 460.065 633.478 459.677 633.1L460.393 630.367C460.715 630.811 461.16 631.2 461.727 631.533C462.304 631.867 462.899 632.033 463.51 632.033C463.921 632.033 464.215 631.956 464.393 631.8C464.582 631.644 464.677 631.456 464.677 631.233C464.677 630.978 464.582 630.794 464.393 630.683C464.204 630.561 464.01 630.461 463.81 630.383L462.41 629.85C462.099 629.728 461.743 629.561 461.343 629.35C460.943 629.139 460.593 628.839 460.293 628.45C460.004 628.061 459.86 627.55 459.86 626.917C459.86 626.339 460.004 625.806 460.293 625.317C460.582 624.828 460.999 624.433 461.543 624.133C462.099 623.822 462.765 623.667 463.543 623.667C464.265 623.667 464.938 623.789 465.56 624.033C466.193 624.278 466.654 624.55 466.943 624.85L466.277 627.483C465.899 626.994 465.449 626.622 464.927 626.367C464.415 626.1 463.927 625.967 463.46 625.967C463.104 625.967 462.843 626.039 462.677 626.183C462.51 626.328 462.427 626.494 462.427 626.683C462.427 626.828 462.482 626.972 462.593 627.117C462.715 627.25 462.915 627.372 463.193 627.483L464.493 627.967C464.871 628.1 465.271 628.278 465.693 628.5C466.127 628.722 466.493 629.033 466.793 629.433C467.093 629.822 467.243 630.361 467.243 631.05C467.243 632.017 466.882 632.806 466.16 633.417C465.449 634.028 464.515 634.333 463.36 634.333ZM474.096 634.333C472.974 634.333 471.985 634.1 471.129 633.633C470.274 633.167 469.607 632.528 469.129 631.717C468.651 630.894 468.413 629.956 468.413 628.9C468.413 627.889 468.646 626.994 469.113 626.217C469.579 625.428 470.207 624.806 470.996 624.35C471.796 623.894 472.679 623.667 473.646 623.667C474.635 623.667 475.518 623.894 476.296 624.35C477.074 624.794 477.685 625.406 478.129 626.183C478.585 626.961 478.813 627.844 478.813 628.833V629.85H472.712C472.435 629.85 472.168 629.833 471.913 629.8C471.657 629.767 471.401 629.728 471.146 629.683C471.279 630.35 471.607 630.894 472.129 631.317C472.663 631.728 473.34 631.933 474.163 631.933C474.796 631.933 475.363 631.806 475.863 631.55C476.374 631.294 476.79 630.978 477.113 630.6L477.746 633.2C477.246 633.578 476.679 633.861 476.046 634.05C475.424 634.239 474.774 634.333 474.096 634.333ZM471.079 627.933C471.635 627.811 472.179 627.75 472.712 627.75H474.479C474.79 627.75 475.085 627.761 475.362 627.783C475.64 627.806 475.901 627.844 476.146 627.9C475.979 627.3 475.674 626.828 475.229 626.483C474.796 626.139 474.257 625.967 473.613 625.967C473.001 625.967 472.468 626.144 472.012 626.5C471.568 626.844 471.257 627.322 471.079 627.933Z"
fill="#1D2021" />
<path
d="M47 219C47 223.418 50.5817 227 55 227C59.4183 227 63 223.418 63 219C63 214.582 59.4183 211 55 211C50.5817 211 47 214.582 47 219ZM55 187L46.3397 202H63.6603L55 187ZM56.5 219V200.5H53.5V219H56.5Z"
fill="#98971A" />
<path
d="M191 219L199.66 204H182.34L191 219ZM183 187C183 191.418 186.582 195 191 195C195.418 195 199 191.418 199 187C199 182.582 195.418 179 191 179C186.582 179 183 182.582 183 187ZM192.5 205.5V187H189.5V205.5H192.5Z"
fill="#CC241D" />
<path
d="M410 219L418.66 204H401.34L410 219ZM402 187C402 191.418 405.582 195 410 195C414.418 195 418 191.418 418 187C418 182.582 414.418 179 410 179C405.582 179 402 182.582 402 187ZM411.5 205.5V187H408.5V205.5H411.5Z"
fill="#CC241D" />
<path
d="M627 219L632.774 209H621.226L627 219ZM621.667 187C621.667 189.946 624.054 192.333 627 192.333C629.946 192.333 632.333 189.946 632.333 187C632.333 184.054 629.946 181.667 627 181.667C624.054 181.667 621.667 184.054 621.667 187ZM628 210V187H626V210H628Z"
fill="#CC241D" />
<path
d="M269 219C269 223.418 272.582 227 277 227C281.418 227 285 223.418 285 219C285 214.582 281.418 211 277 211C272.582 211 269 214.582 269 219ZM277 187L268.34 202H285.66L277 187ZM278.5 219V200.5H275.5V219H278.5Z"
fill="#98971A" />
<path
d="M474 219C474 223.418 477.582 227 482 227C486.418 227 490 223.418 490 219C490 214.582 486.418 211 482 211C477.582 211 474 214.582 474 219ZM482 187L473.34 202H490.66L482 187ZM483.5 219V200.5H480.5V219H483.5Z"
fill="#98971A" />
<path
d="M279 327L287.66 312H270.34L279 327ZM271 295C271 299.418 274.582 303 279 303C283.418 303 287 299.418 287 295C287 290.582 283.418 287 279 287C274.582 287 271 290.582 271 295ZM280.5 313.5V295H277.5V313.5H280.5Z"
fill="#98971A" />
<path
d="M384 327C384 331.418 387.582 335 392 335C396.418 335 400 331.418 400 327C400 322.582 396.418 319 392 319C387.582 319 384 322.582 384 327ZM392 295L383.34 310H400.66L392 295ZM393.5 327V308.5H390.5V327H393.5Z"
fill="#D79921" />
<path
d="M472 551C472 555.418 475.582 559 480 559C484.418 559 488 555.418 488 551C488 546.582 484.418 543 480 543C475.582 543 472 546.582 472 551ZM480 519L471.34 534H488.66L480 519ZM481.5 551V532.5H478.5V551H481.5Z"
fill="#B16286" />
<path
d="M387 551L395.66 536H378.34L387 551ZM379 519C379 523.418 382.582 527 387 527C391.418 527 395 523.418 395 519C395 514.582 391.418 511 387 511C382.582 511 379 514.582 379 519ZM388.5 537.5V519H385.5V537.5H388.5Z"
fill="#D79921" />
<path
d="M671 377L656 368.34V385.66L671 377ZM647 385C651.418 385 655 381.418 655 377C655 372.582 651.418 369 647 369C642.582 369 639 372.582 639 377C639 381.418 642.582 385 647 385ZM657.5 375.5H647V378.5H657.5V375.5Z"
fill="#D79921" />
<path
d="M671 471C675.418 471 679 467.418 679 463C679 458.582 675.418 455 671 455C666.582 455 663 458.582 663 463C663 467.418 666.582 471 671 471ZM647 463L662 471.66V454.34L647 463ZM671 461.5H660.5V464.5H671V461.5Z"
fill="#D79921" />
<path
d="M751.722 396.542C751.722 395.782 751.861 395.06 752.139 394.375C752.426 393.699 752.769 393.157 753.167 392.75L755.944 393.431C755.38 393.755 754.907 394.213 754.528 394.806C754.157 395.398 753.972 396.005 753.972 396.625C753.972 397.134 754.111 397.532 754.389 397.819C754.667 398.116 755.005 398.264 755.403 398.264C755.727 398.264 755.995 398.185 756.208 398.028C756.421 397.88 756.597 397.699 756.736 397.486C756.875 397.282 756.981 397.102 757.056 396.944L757.792 395.472C758.005 395.046 758.255 394.639 758.542 394.25C758.838 393.861 759.204 393.542 759.639 393.292C760.074 393.051 760.611 392.931 761.25 392.931C761.954 392.931 762.569 393.088 763.097 393.403C763.625 393.727 764.037 394.181 764.333 394.764C764.63 395.347 764.778 396.032 764.778 396.819C764.778 397.56 764.657 398.218 764.417 398.792C764.185 399.375 763.935 399.847 763.667 400.208L760.958 399.569C761.44 399.199 761.824 398.755 762.111 398.236C762.407 397.727 762.556 397.218 762.556 396.708C762.556 396.255 762.44 395.903 762.208 395.653C761.977 395.412 761.69 395.292 761.347 395.292C761.134 395.292 760.944 395.338 760.778 395.431C760.611 395.532 760.463 395.676 760.333 395.861C760.204 396.046 760.074 396.264 759.944 396.514L759.208 398C759.088 398.25 758.931 398.523 758.736 398.819C758.551 399.116 758.315 399.403 758.028 399.681C757.741 399.958 757.394 400.185 756.986 400.361C756.588 400.537 756.111 400.625 755.556 400.625C754.833 400.625 754.181 400.458 753.597 400.125C753.023 399.792 752.565 399.319 752.222 398.708C751.889 398.106 751.722 397.384 751.722 396.542ZM752 403.049H758.417V401.493H760.333V403.091H763.111V405.424H760.333V407.077H758.417V405.466H752V403.049ZM752 408.327H760.333V410.493H758.903C759.384 410.781 759.755 411.142 760.014 411.577C760.282 412.021 760.417 412.54 760.417 413.132L758.278 413.66C758.333 413.484 758.361 413.285 758.361 413.063C758.361 412.368 758.134 411.808 757.681 411.382C757.236 410.956 756.597 410.743 755.764 410.743H752V408.327ZM751.722 417.936C751.722 417.352 751.861 416.802 752.139 416.283C752.426 415.764 752.838 415.343 753.375 415.019C753.921 414.704 754.579 414.547 755.347 414.547H760.333V416.964H755.667C755.204 416.964 754.792 417.102 754.431 417.38C754.069 417.667 753.889 418.065 753.889 418.575C753.889 418.991 754.037 419.362 754.333 419.686C754.639 420.019 755.074 420.186 755.639 420.186H760.333V422.602H752V420.408H752.875C752.505 420.112 752.218 419.746 752.014 419.311C751.819 418.885 751.722 418.427 751.722 417.936ZM751.722 428.523C751.722 427.699 751.921 426.945 752.319 426.26C752.718 425.574 753.255 425.028 753.931 424.621C754.606 424.223 755.352 424.023 756.167 424.023C756.991 424.023 757.736 424.223 758.403 424.621C759.079 425.028 759.616 425.574 760.014 426.26C760.412 426.945 760.611 427.699 760.611 428.523C760.611 429.098 760.514 429.639 760.319 430.148C760.134 430.667 759.856 431.125 759.486 431.523L757.028 430.898C757.407 430.667 757.736 430.357 758.014 429.968C758.301 429.588 758.444 429.139 758.444 428.621C758.444 428.185 758.343 427.797 758.139 427.454C757.935 427.111 757.662 426.843 757.319 426.648C756.977 426.454 756.593 426.357 756.167 426.357C755.75 426.357 755.366 426.454 755.014 426.648C754.671 426.843 754.398 427.111 754.194 427.454C753.991 427.797 753.889 428.185 753.889 428.621C753.889 429.139 754.028 429.588 754.306 429.968C754.593 430.357 754.926 430.667 755.306 430.898L752.847 431.523C752.477 431.125 752.194 430.667 752 430.148C751.815 429.639 751.722 429.098 751.722 428.523ZM752 433.752H758.417V432.197H760.333V433.794H763.111V436.127H760.333V437.78H758.417V436.169H752V433.752ZM751.722 441.766C751.722 441.201 751.815 440.627 752 440.044C752.185 439.47 752.435 439.021 752.75 438.697L755.028 439.294C754.657 439.562 754.333 439.933 754.056 440.405C753.778 440.886 753.639 441.382 753.639 441.891C753.639 442.234 753.704 442.479 753.833 442.627C753.963 442.785 754.12 442.863 754.306 442.863C754.519 442.863 754.671 442.785 754.764 442.627C754.866 442.47 754.949 442.308 755.014 442.141L755.458 440.974C755.56 440.715 755.699 440.419 755.875 440.086C756.051 439.752 756.301 439.461 756.625 439.211C756.949 438.97 757.375 438.849 757.903 438.849C758.384 438.849 758.829 438.97 759.236 439.211C759.644 439.451 759.972 439.798 760.222 440.252C760.481 440.715 760.611 441.271 760.611 441.919C760.611 442.521 760.509 443.081 760.306 443.599C760.102 444.127 759.875 444.511 759.625 444.752L757.431 444.197C757.838 443.882 758.148 443.507 758.361 443.072C758.583 442.646 758.694 442.238 758.694 441.849C758.694 441.553 758.634 441.336 758.514 441.197C758.394 441.058 758.255 440.988 758.097 440.988C757.977 440.988 757.856 441.035 757.736 441.127C757.625 441.229 757.523 441.396 757.431 441.627L757.028 442.711C756.917 443.025 756.769 443.359 756.583 443.711C756.398 444.072 756.139 444.377 755.806 444.627C755.481 444.877 755.032 445.002 754.458 445.002C753.653 445.002 752.995 444.701 752.486 444.099C751.977 443.507 751.722 442.729 751.722 441.766Z"
fill="#EBDBB2" />
<path
d="M769 377L754 368.34V385.66L769 377ZM745 385C749.418 385 753 381.418 753 377C753 372.582 749.418 369 745 369C740.582 369 737 372.582 737 377C737 381.418 740.582 385 745 385ZM755.5 375.5H745V378.5H755.5V375.5Z"
fill="#D79921" />
<path
d="M769 471C773.418 471 777 467.418 777 463C777 458.582 773.418 455 769 455C764.582 455 761 458.582 761 463C761 467.418 764.582 471 769 471ZM745 463L760 471.66V454.34L745 463ZM769 461.5H758.5V464.5H769V461.5Z"
fill="#D79921" />
<path
d="M378.175 57.5C376.808 57.5 375.508 57.25 374.275 56.75C373.058 56.2333 372.083 55.6167 371.35 54.9L372.575 49.9C373.158 50.9167 373.983 51.7667 375.05 52.45C376.117 53.1167 377.208 53.45 378.325 53.45C379.242 53.45 379.958 53.2 380.475 52.7C381.008 52.2 381.275 51.5917 381.275 50.875C381.275 50.2917 381.133 49.8083 380.85 49.425C380.583 49.0417 380.258 48.725 379.875 48.475C379.508 48.225 379.183 48.0333 378.9 47.9L376.25 46.575C375.483 46.1917 374.75 45.7417 374.05 45.225C373.35 44.6917 372.775 44.0333 372.325 43.25C371.892 42.4667 371.675 41.5 371.675 40.35C371.675 39.0833 371.958 37.975 372.525 37.025C373.108 36.075 373.925 35.3333 374.975 34.8C376.025 34.2667 377.258 34 378.675 34C380.008 34 381.192 34.2167 382.225 34.65C383.275 35.0667 384.125 35.5167 384.775 36L383.625 40.875C382.958 40.0083 382.158 39.3167 381.225 38.8C380.308 38.2667 379.392 38 378.475 38C377.658 38 377.025 38.2083 376.575 38.625C376.142 39.0417 375.925 39.5583 375.925 40.175C375.925 40.5583 376.008 40.9 376.175 41.2C376.358 41.5 376.617 41.7667 376.95 42C377.283 42.2333 377.675 42.4667 378.125 42.7L380.8 44.025C381.25 44.2417 381.742 44.525 382.275 44.875C382.808 45.2083 383.325 45.6333 383.825 46.15C384.325 46.6667 384.733 47.2917 385.05 48.025C385.367 48.7417 385.525 49.6 385.525 50.6C385.525 51.9 385.225 53.075 384.625 54.125C384.025 55.1583 383.175 55.9833 382.075 56.6C380.992 57.2 379.692 57.5 378.175 57.5ZM395.488 57.5C394.005 57.5 392.647 57.1417 391.413 56.425C390.18 55.7083 389.197 54.7417 388.463 53.525C387.747 52.3083 387.388 50.9667 387.388 49.5C387.388 48.0167 387.747 46.675 388.463 45.475C389.197 44.2583 390.18 43.2917 391.413 42.575C392.647 41.8583 394.005 41.5 395.488 41.5C396.988 41.5 398.347 41.8583 399.563 42.575C400.797 43.2917 401.772 44.2583 402.488 45.475C403.222 46.675 403.588 48.0167 403.588 49.5C403.588 50.9667 403.222 52.3083 402.488 53.525C401.772 54.7417 400.797 55.7083 399.563 56.425C398.347 57.1417 396.988 57.5 395.488 57.5ZM395.488 53.6C396.238 53.6 396.913 53.4167 397.513 53.05C398.13 52.6833 398.613 52.1917 398.963 51.575C399.33 50.9417 399.513 50.25 399.513 49.5C399.513 48.7333 399.33 48.0417 398.963 47.425C398.613 46.8083 398.13 46.3167 397.513 45.95C396.913 45.5833 396.238 45.4 395.488 45.4C394.738 45.4 394.055 45.5833 393.438 45.95C392.838 46.3167 392.355 46.8083 391.988 47.425C391.638 48.0417 391.463 48.7333 391.463 49.5C391.463 50.25 391.638 50.9417 391.988 51.575C392.355 52.1917 392.838 52.6833 393.438 53.05C394.055 53.4167 394.738 53.6 395.488 53.6ZM407.15 57V45.45H404.35V42H407.225V38.175C407.225 36.3917 407.742 35.0333 408.775 34.1C409.825 33.1667 411.117 32.7 412.65 32.7C413.217 32.7 413.758 32.7667 414.275 32.9C414.808 33.0167 415.275 33.2083 415.675 33.475L414.825 37C414.325 36.3833 413.742 36.075 413.075 36.075C412.675 36.075 412.3 36.2167 411.95 36.5C411.6 36.7833 411.425 37.3083 411.425 38.075V42H414.4V45.45H411.5V57H407.15ZM418.4 57V45.45H415.6V42H418.475V37H422.675V42H425.65V45.45H422.75V57H418.4ZM433.875 57.75L426.4 42H431.075L433.375 46.825C433.592 47.2417 433.808 47.7 434.025 48.2C434.242 48.6833 434.458 49.2333 434.675 49.85C434.908 49.2667 435.133 48.7583 435.35 48.325C435.583 47.875 435.808 47.4417 436.025 47.025L438.85 41.5L441.775 47.025C441.975 47.3917 442.183 47.8 442.4 48.25C442.633 48.7 442.858 49.2333 443.075 49.85C443.292 49.1833 443.5 48.6167 443.7 48.15C443.917 47.6833 444.125 47.2417 444.325 46.825L446.625 42H451.1L443.625 57.75L440.2 51.975C439.933 51.5417 439.683 51.1 439.45 50.65C439.217 50.2 438.983 49.725 438.75 49.225C438.533 49.725 438.3 50.2 438.05 50.65C437.817 51.1 437.567 51.5417 437.3 51.975L433.875 57.75ZM458.908 57.4C457.524 57.4 456.266 57.0417 455.133 56.325C453.999 55.6083 453.091 54.6583 452.408 53.475C451.741 52.275 451.408 50.95 451.408 49.5C451.408 48.05 451.741 46.725 452.408 45.525C453.091 44.325 453.999 43.375 455.133 42.675C456.266 41.9583 457.524 41.6 458.908 41.6C459.874 41.6 460.758 41.775 461.558 42.125C462.358 42.4583 463.041 42.925 463.608 43.525V42H467.358V57H463.608V55.475C463.041 56.075 462.358 56.55 461.558 56.9C460.758 57.2333 459.874 57.4 458.908 57.4ZM459.433 53.575C460.166 53.575 460.833 53.3917 461.433 53.025C462.033 52.6583 462.508 52.1667 462.858 51.55C463.224 50.9333 463.408 50.25 463.408 49.5C463.408 48.75 463.224 48.0667 462.858 47.45C462.508 46.8333 462.033 46.3417 461.433 45.975C460.833 45.6083 460.166 45.425 459.433 45.425C458.699 45.425 458.033 45.6083 457.433 45.975C456.833 46.3417 456.349 46.8333 455.983 47.45C455.633 48.0667 455.458 48.75 455.458 49.5C455.458 50.25 455.633 50.9333 455.983 51.55C456.349 52.1667 456.833 52.6583 457.433 53.025C458.033 53.3917 458.699 53.575 459.433 53.575ZM470.65 57V42H474.55V44.575C475.067 43.7083 475.717 43.0417 476.5 42.575C477.3 42.0917 478.233 41.85 479.3 41.85L480.25 45.7C479.933 45.6 479.575 45.55 479.175 45.55C477.925 45.55 476.917 45.9583 476.15 46.775C475.383 47.575 475 48.725 475 50.225V57H470.65ZM489.429 57.5C487.746 57.5 486.262 57.15 484.979 56.45C483.696 55.75 482.696 54.7917 481.979 53.575C481.262 52.3417 480.904 50.9333 480.904 49.35C480.904 47.8333 481.254 46.4917 481.954 45.325C482.654 44.1417 483.596 43.2083 484.779 42.525C485.979 41.8417 487.304 41.5 488.754 41.5C490.237 41.5 491.562 41.8417 492.729 42.525C493.896 43.1917 494.812 44.1083 495.479 45.275C496.162 46.4417 496.504 47.7667 496.504 49.25V50.775H487.354C486.937 50.775 486.537 50.75 486.154 50.7C485.771 50.65 485.387 50.5917 485.004 50.525C485.204 51.525 485.696 52.3417 486.479 52.975C487.279 53.5917 488.296 53.9 489.529 53.9C490.479 53.9 491.329 53.7083 492.079 53.325C492.846 52.9417 493.471 52.4667 493.954 51.9L494.904 55.8C494.154 56.3667 493.304 56.7917 492.354 57.075C491.421 57.3583 490.446 57.5 489.429 57.5ZM484.904 47.9C485.737 47.7167 486.554 47.625 487.354 47.625H490.004C490.471 47.625 490.912 47.6417 491.329 47.675C491.746 47.7083 492.137 47.7667 492.504 47.85C492.254 46.95 491.796 46.2417 491.129 45.725C490.479 45.2083 489.671 44.95 488.704 44.95C487.787 44.95 486.987 45.2167 486.304 45.75C485.637 46.2667 485.171 46.9833 484.904 47.9Z"
fill="#EBDBB2" />
</svg>
